<svg width="61" height="61" viewBox="0 0 61 61" fill="none" xmlns="http://www.w3.org/2000/svg">
<path fill-rule="evenodd" clip-rule="evenodd" d="M23.1479 12.3413C14.2955 18.5203 9.51417 25.4992 8.80393 33.2784C7.69824 45.3888 18.7014 50.8718 23.9573 45.3621C29.2133 39.8526 25.6813 33.2521 21.6568 31.5658C17.6324 29.8793 15.2392 30.6128 15.5664 28.1396C15.8935 25.6663 21.256 18.6373 26.0754 15.2744C26.3925 14.983 26.4964 14.4372 26.165 14.0391C25.9469 13.7771 25.5192 13.2635 24.882 12.498C24.3247 11.8287 23.8173 11.8741 23.1479 12.3413Z" fill="#9BCCF0"/>
<path fill-rule="evenodd" clip-rule="evenodd" d="M47.0446 11.4211C38.1923 17.6001 33.4109 24.5791 32.7006 32.3582C31.595 44.4686 42.5982 49.9517 47.8541 44.442C53.1101 38.9324 49.5781 32.3319 45.5536 30.6456C41.5292 28.9591 39.1359 29.6926 39.4632 27.2194C39.7903 24.7461 45.1527 17.7171 49.9722 14.3542C50.2893 14.0628 50.3932 13.517 50.0616 13.1189C49.8437 12.8569 49.416 12.3433 48.7787 11.5779C48.2215 10.9085 47.714 10.9539 47.0446 11.4211Z" fill="#9BCCF0"/>
</svg>
