<svg width="150" height="40" viewBox="0 0 150 40" fill="none" xmlns="http://www.w3.org/2000/svg">
<path d="M0 20C0 8.95431 8.95431 0 20 0H130C141.046 0 150 8.95431 150 20V20C150 31.0457 141.046 40 130 40H20C8.9543 40 0 31.0457 0 20V20Z" fill="white"/>
<path fill-rule="evenodd" clip-rule="evenodd" d="M130 2H20C10.0589 2 2 10.0589 2 20C2 29.9411 10.0589 38 20 38H130C139.941 38 148 29.9411 148 20C148 10.0589 139.941 2 130 2ZM20 0C8.95431 0 0 8.95431 0 20C0 31.0457 8.9543 40 20 40H130C141.046 40 150 31.0457 150 20C150 8.95431 141.046 0 130 0H20Z" fill="#12141D"/>
<path d="M55.9309 12.8189C55.9025 12.5324 55.7806 12.3099 55.5651 12.1513C55.3497 11.9926 55.0573 11.9133 54.688 11.9133C54.4371 11.9133 54.2252 11.9488 54.0524 12.0199C53.8795 12.0885 53.747 12.1844 53.6546 12.3075C53.5647 12.4306 53.5197 12.5703 53.5197 12.7265C53.515 12.8567 53.5422 12.9704 53.6014 13.0674C53.6629 13.1645 53.747 13.2486 53.8535 13.3196C53.96 13.3882 54.0831 13.4486 54.2228 13.5007C54.3625 13.5504 54.5116 13.593 54.6703 13.6285L55.3237 13.7848C55.6409 13.8558 55.9321 13.9505 56.1972 14.0689C56.4624 14.1872 56.692 14.3328 56.8862 14.5057C57.0803 14.6785 57.2306 14.8821 57.3372 15.1165C57.4461 15.3508 57.5017 15.6195 57.5041 15.9226C57.5017 16.3676 57.3881 16.7535 57.1632 17.0802C56.9406 17.4046 56.6186 17.6567 56.1972 17.8366C55.7782 18.0142 55.2728 18.103 54.6809 18.103C54.0938 18.103 53.5824 18.013 53.1468 17.8331C52.7136 17.6532 52.375 17.3868 52.1312 17.0341C51.8897 16.679 51.7631 16.2398 51.7512 15.7166H53.2391C53.2557 15.9604 53.3256 16.164 53.4487 16.3274C53.5741 16.4884 53.741 16.6103 53.9494 16.6932C54.1601 16.7737 54.398 16.8139 54.6632 16.8139C54.9236 16.8139 55.1497 16.776 55.3414 16.7003C55.5355 16.6245 55.6859 16.5192 55.7924 16.3842C55.8989 16.2493 55.9522 16.0942 55.9522 15.919C55.9522 15.7557 55.9037 15.6183 55.8066 15.5071C55.7119 15.3958 55.5722 15.3011 55.3876 15.223C55.2053 15.1449 54.9816 15.0738 54.7164 15.0099L53.9245 14.8111C53.3114 14.6619 52.8272 14.4287 52.4721 14.1115C52.117 13.7942 51.9406 13.3669 51.943 12.8295C51.9406 12.3892 52.0578 12.0045 52.2945 11.6754C52.5337 11.3463 52.8615 11.0895 53.2782 10.9048C53.6949 10.7201 54.1684 10.6278 54.6987 10.6278C55.2384 10.6278 55.7096 10.7201 56.112 10.9048C56.5168 11.0895 56.8317 11.3463 57.0566 11.6754C57.2815 12.0045 57.3975 12.3856 57.4046 12.8189H55.9309Z" fill="#12141D"/>
<path d="M62.0078 15.6775V12.5454H63.5206V18H62.0682V17.0092H62.0113C61.8882 17.3288 61.6835 17.5857 61.397 17.7798C61.1129 17.9739 60.7661 18.071 60.3565 18.071C59.9919 18.071 59.6711 17.9881 59.3942 17.8224C59.1172 17.6567 58.9005 17.4211 58.7443 17.1157C58.5904 16.8103 58.5123 16.4446 58.5099 16.0184V12.5454H60.0227V15.7486C60.0251 16.0705 60.1115 16.325 60.2819 16.5121C60.4524 16.6991 60.6808 16.7926 60.9673 16.7926C61.1496 16.7926 61.3201 16.7512 61.4787 16.6683C61.6373 16.5831 61.7651 16.4576 61.8622 16.2919C61.9616 16.1262 62.0102 15.9214 62.0078 15.6775Z" fill="#12141D"/>
<path d="M64.759 18V10.7273H66.2718V13.4616H66.318C66.3843 13.3148 66.4802 13.1657 66.6056 13.0142C66.7335 12.8603 66.8992 12.7325 67.1028 12.6307C67.3087 12.5265 67.5644 12.4744 67.8698 12.4744C68.2676 12.4744 68.6345 12.5786 68.9707 12.7869C69.3069 12.9929 69.5756 13.3042 69.7768 13.7209C69.978 14.1352 70.0786 14.6548 70.0786 15.2798C70.0786 15.8882 69.9804 16.402 69.7839 16.821C69.5898 17.2377 69.3246 17.5537 68.9884 17.7692C68.6546 17.9822 68.2806 18.0888 67.8663 18.0888C67.5727 18.0888 67.323 18.0402 67.117 17.9432C66.9134 17.8461 66.7465 17.7242 66.6163 17.5774C66.4861 17.4282 66.3866 17.2779 66.318 17.1264H66.2505V18H64.759ZM66.2399 15.2727C66.2399 15.597 66.2848 15.8799 66.3748 16.1214C66.4648 16.3629 66.595 16.5511 66.7654 16.6861C66.9359 16.8186 67.143 16.8849 67.3869 16.8849C67.6331 16.8849 67.8414 16.8174 68.0119 16.6825C68.1823 16.5452 68.3114 16.3558 68.3989 16.1143C68.4889 15.8705 68.5339 15.5899 68.5339 15.2727C68.5339 14.9578 68.4901 14.6808 68.4025 14.4417C68.3149 14.2026 68.1859 14.0156 68.0154 13.8807C67.845 13.7457 67.6355 13.6782 67.3869 13.6782C67.1407 13.6782 66.9323 13.7433 66.7619 13.8736C66.5938 14.0038 66.4648 14.1884 66.3748 14.4275C66.2848 14.6666 66.2399 14.9484 66.2399 15.2727Z" fill="#12141D"/>
<path d="M71.088 18V12.5454H72.5298V13.5078H72.5937C72.7074 13.1882 72.8968 12.9361 73.1619 12.7514C73.4271 12.5667 73.7443 12.4744 74.1136 12.4744C74.4877 12.4744 74.8061 12.5679 75.0689 12.7549C75.3317 12.9396 75.5068 13.1906 75.5944 13.5078H75.6513C75.7625 13.1953 75.9638 12.9455 76.2549 12.7585C76.5485 12.5691 76.8953 12.4744 77.2954 12.4744C77.8044 12.4744 78.2175 12.6366 78.5348 12.9609C78.8544 13.2829 79.0142 13.7398 79.0142 14.3317V18H77.5049V14.6299C77.5049 14.3269 77.4245 14.0996 77.2635 13.9481C77.1025 13.7966 76.9013 13.7209 76.6598 13.7209C76.3852 13.7209 76.1709 13.8085 76.017 13.9836C75.8631 14.1565 75.7862 14.3849 75.7862 14.669V18H74.3196V14.598C74.3196 14.3305 74.2426 14.1174 74.0888 13.9588C73.9372 13.8002 73.7372 13.7209 73.4886 13.7209C73.3205 13.7209 73.169 13.7635 73.0341 13.8487C72.9015 13.9316 72.7961 14.0487 72.718 14.2003C72.6399 14.3494 72.6008 14.5246 72.6008 14.7258V18H71.088Z" fill="#12141D"/>
<path d="M80.2091 18V12.5454H81.7219V18H80.2091ZM80.9691 11.8423C80.7442 11.8423 80.5512 11.7677 80.3902 11.6186C80.2316 11.4671 80.1523 11.286 80.1523 11.0753C80.1523 10.8669 80.2316 10.6882 80.3902 10.539C80.5512 10.3875 80.7442 10.3118 80.9691 10.3118C81.194 10.3118 81.3857 10.3875 81.5444 10.539C81.7054 10.6882 81.7858 10.8669 81.7858 11.0753C81.7858 11.286 81.7054 11.4671 81.5444 11.6186C81.3857 11.7677 81.194 11.8423 80.9691 11.8423Z" fill="#12141D"/>
<path d="M85.835 12.5454V13.6818H82.5502V12.5454H85.835ZM83.296 11.2386H84.8088V16.3238C84.8088 16.4635 84.8301 16.5724 84.8727 16.6505C84.9153 16.7263 84.9745 16.7796 85.0502 16.8103C85.1283 16.8411 85.2183 16.8565 85.3201 16.8565C85.3911 16.8565 85.4622 16.8506 85.5332 16.8388C85.6042 16.8246 85.6587 16.8139 85.6965 16.8068L85.9345 17.9325C85.8587 17.9562 85.7522 17.9834 85.6149 18.0142C85.4775 18.0473 85.3106 18.0674 85.1141 18.0746C84.7496 18.0888 84.43 18.0402 84.1553 17.929C83.8831 17.8177 83.6712 17.6449 83.5197 17.4105C83.3682 17.1761 83.2936 16.8802 83.296 16.5227V11.2386Z" fill="#12141D"/>
<path d="M90.0689 20.0454C89.8771 20.0454 89.6972 20.03 89.5291 19.9993C89.3634 19.9709 89.2261 19.9342 89.1172 19.8892L89.4581 18.7599C89.6356 18.8144 89.7954 18.844 89.9375 18.8487C90.0819 18.8534 90.2062 18.8203 90.3103 18.7493C90.4169 18.6782 90.5033 18.5575 90.5696 18.3871L90.6584 18.1562L88.7017 12.5454H90.2926L91.4219 16.5511H91.4787L92.6186 12.5454H94.2201L92.1001 18.5895C91.9983 18.883 91.8598 19.1387 91.6846 19.3565C91.5118 19.5767 91.2928 19.746 91.0277 19.8643C90.7625 19.9851 90.4429 20.0454 90.0689 20.0454Z" fill="#12141D"/>
<path d="M97.283 18.1065C96.7314 18.1065 96.2544 17.9893 95.8519 17.7549C95.4518 17.5182 95.1429 17.1891 94.925 16.7677C94.7072 16.344 94.5983 15.8527 94.5983 15.294C94.5983 14.7306 94.7072 14.2381 94.925 13.8167C95.1429 13.393 95.4518 13.0639 95.8519 12.8295C96.2544 12.5928 96.7314 12.4744 97.283 12.4744C97.8346 12.4744 98.3105 12.5928 98.7106 12.8295C99.113 13.0639 99.4232 13.393 99.641 13.8167C99.8588 14.2381 99.9677 14.7306 99.9677 15.294C99.9677 15.8527 99.8588 16.344 99.641 16.7677C99.4232 17.1891 99.113 17.5182 98.7106 17.7549C98.3105 17.9893 97.8346 18.1065 97.283 18.1065ZM97.2901 16.9346C97.5411 16.9346 97.7506 16.8636 97.9187 16.7216C98.0867 16.5772 98.2134 16.3807 98.2986 16.1321C98.3862 15.8835 98.43 15.6006 98.43 15.2834C98.43 14.9661 98.3862 14.6832 98.2986 14.4346C98.2134 14.1861 98.0867 13.9896 97.9187 13.8451C97.7506 13.7007 97.5411 13.6285 97.2901 13.6285C97.0368 13.6285 96.8237 13.7007 96.6509 13.8451C96.4804 13.9896 96.3514 14.1861 96.2638 14.4346C96.1786 14.6832 96.136 14.9661 96.136 15.2834C96.136 15.6006 96.1786 15.8835 96.2638 16.1321C96.3514 16.3807 96.4804 16.5772 96.6509 16.7216C96.8237 16.8636 97.0368 16.9346 97.2901 16.9346Z" fill="#12141D"/>
<path d="M104.449 15.6775V12.5454H105.962V18H104.51V17.0092H104.453C104.33 17.3288 104.125 17.5857 103.838 17.7798C103.554 17.9739 103.207 18.071 102.798 18.071C102.433 18.071 102.113 17.9881 101.836 17.8224C101.559 17.6567 101.342 17.4211 101.186 17.1157C101.032 16.8103 100.954 16.4446 100.951 16.0184V12.5454H102.464V15.7486C102.466 16.0705 102.553 16.325 102.723 16.5121C102.894 16.6991 103.122 16.7926 103.409 16.7926C103.591 16.7926 103.761 16.7512 103.92 16.6683C104.079 16.5831 104.207 16.4576 104.304 16.2919C104.403 16.1262 104.452 15.9214 104.449 15.6775Z" fill="#12141D"/>
<path d="M107.172 18V12.5454H108.639V13.4971H108.695C108.795 13.1586 108.962 12.9029 109.196 12.7301C109.431 12.5549 109.7 12.4673 110.006 12.4673C110.082 12.4673 110.163 12.472 110.251 12.4815C110.338 12.491 110.415 12.504 110.482 12.5206V13.8629C110.411 13.8416 110.312 13.8227 110.187 13.8061C110.061 13.7895 109.947 13.7812 109.842 13.7812C109.62 13.7812 109.421 13.8298 109.246 13.9268C109.073 14.0215 108.936 14.1541 108.834 14.3246C108.735 14.495 108.685 14.6915 108.685 14.914V18H107.172Z" fill="#12141D"/>
<path d="M53.9671 30.0888C53.5528 30.0888 53.1776 29.9822 52.8414 29.7692C52.5076 29.5537 52.2425 29.2377 52.046 28.821C51.8518 28.402 51.7548 27.8882 51.7548 27.2798C51.7548 26.6548 51.8554 26.1352 52.0566 25.7209C52.2578 25.3042 52.5254 24.9929 52.8592 24.7869C53.1953 24.5786 53.5635 24.4744 53.9636 24.4744C54.269 24.4744 54.5235 24.5265 54.7271 24.6307C54.933 24.7325 55.0988 24.8603 55.2242 25.0142C55.3521 25.1657 55.4491 25.3148 55.5154 25.4616H55.5616V22.7273H57.0708V30H55.5793V29.1264H55.5154C55.4444 29.2779 55.3438 29.4282 55.2136 29.5774C55.0857 29.7242 54.9188 29.8461 54.7129 29.9432C54.5093 30.0402 54.2607 30.0888 53.9671 30.0888ZM54.4465 28.8849C54.6904 28.8849 54.8963 28.8186 55.0644 28.6861C55.2349 28.5511 55.3651 28.3629 55.4551 28.1214C55.5474 27.8799 55.5936 27.597 55.5936 27.2727C55.5936 26.9484 55.5486 26.6666 55.4586 26.4275C55.3686 26.1884 55.2384 26.0038 55.068 25.8736C54.8975 25.7433 54.6904 25.6782 54.4465 25.6782C54.198 25.6782 53.9884 25.7457 53.818 25.8807C53.6475 26.0156 53.5185 26.2026 53.4309 26.4417C53.3433 26.6808 53.2995 26.9578 53.2995 27.2727C53.2995 27.5899 53.3433 27.8705 53.4309 28.1143C53.5209 28.3558 53.6499 28.5452 53.818 28.6825C53.9884 28.8174 54.198 28.8849 54.4465 28.8849Z" fill="#12141D"/>
<path d="M60.8004 30.1065C60.2393 30.1065 59.7564 29.9929 59.3515 29.7656C58.9491 29.536 58.6389 29.2116 58.4211 28.7926C58.2033 28.3712 58.0944 27.8728 58.0944 27.2976C58.0944 26.7365 58.2033 26.2441 58.4211 25.8203C58.6389 25.3965 58.9455 25.0663 59.3409 24.8295C59.7386 24.5928 60.205 24.4744 60.74 24.4744C61.0999 24.4744 61.4349 24.5324 61.745 24.6484C62.0575 24.7621 62.3298 24.9337 62.5618 25.1633C62.7961 25.393 62.9784 25.6818 63.1086 26.0298C63.2389 26.3755 63.304 26.7803 63.304 27.2443V27.6598H58.6981V26.7223H61.8799C61.8799 26.5045 61.8326 26.3115 61.7379 26.1434C61.6432 25.9754 61.5118 25.844 61.3437 25.7493C61.178 25.6522 60.9851 25.6037 60.7649 25.6037C60.5353 25.6037 60.3317 25.6569 60.1541 25.7635C59.9789 25.8676 59.8416 26.0085 59.7422 26.1861C59.6427 26.3612 59.5918 26.5566 59.5895 26.772V27.6633C59.5895 27.9332 59.6392 28.1664 59.7386 28.3629C59.8404 28.5594 59.9836 28.7109 60.1683 28.8175C60.353 28.924 60.5719 28.9772 60.8253 28.9772C60.9933 28.9772 61.1472 28.9536 61.2869 28.9062C61.4266 28.8589 61.5461 28.7879 61.6456 28.6932C61.745 28.5985 61.8208 28.4825 61.8728 28.3451L63.272 28.4375C63.201 28.7737 63.0554 29.0672 62.8352 29.3182C62.6174 29.5667 62.3357 29.7609 61.99 29.9005C61.6468 30.0379 61.2502 30.1065 60.8004 30.1065Z" fill="#12141D"/>
<path d="M68.8295 26.1008L67.4446 26.1861C67.4209 26.0677 67.37 25.9612 67.2919 25.8665C67.2138 25.7694 67.1108 25.6924 66.9829 25.6356C66.8575 25.5764 66.7071 25.5469 66.5319 25.5469C66.2976 25.5469 66.0999 25.5966 65.9389 25.696C65.7779 25.7931 65.6974 25.9233 65.6974 26.0866C65.6974 26.2168 65.7495 26.3269 65.8537 26.4169C65.9578 26.5068 66.1366 26.579 66.3899 26.6335L67.3771 26.8324C67.9074 26.9413 68.3028 27.1165 68.5632 27.3579C68.8236 27.5994 68.9538 27.9166 68.9538 28.3096C68.9538 28.6671 68.8485 28.9808 68.6378 29.2507C68.4294 29.5206 68.143 29.7313 67.7784 29.8828C67.4162 30.0319 66.9983 30.1065 66.5248 30.1065C65.8028 30.1065 65.2275 29.9562 64.799 29.6555C64.3728 29.3525 64.1231 28.9406 64.0497 28.4197L65.5376 28.3416C65.5826 28.5618 65.6915 28.7299 65.8643 28.8459C66.0371 28.9595 66.2585 29.0163 66.5284 29.0163C66.7935 29.0163 67.0066 28.9654 67.1676 28.8636C67.3309 28.7594 67.4138 28.6257 67.4162 28.4623C67.4138 28.325 67.3558 28.2126 67.2422 28.125C67.1285 28.035 66.9533 27.9664 66.7166 27.919L65.772 27.7308C65.2393 27.6243 64.8428 27.4396 64.5824 27.1768C64.3243 26.914 64.1953 26.579 64.1953 26.1719C64.1953 25.8215 64.29 25.5196 64.4794 25.2663C64.6711 25.013 64.9398 24.8177 65.2855 24.6804C65.6335 24.5431 66.0407 24.4744 66.5071 24.4744C67.196 24.4744 67.7381 24.62 68.1335 24.9112C68.5312 25.2024 68.7632 25.5989 68.8295 26.1008Z" fill="#12141D"/>
<path d="M69.9064 30V24.5454H71.4192V30H69.9064ZM70.6663 23.8423C70.4414 23.8423 70.2485 23.7677 70.0875 23.6186C69.9289 23.4671 69.8496 23.286 69.8496 23.0753C69.8496 22.8669 69.9289 22.6882 70.0875 22.539C70.2485 22.3875 70.4414 22.3118 70.6663 22.3118C70.8913 22.3118 71.083 22.3875 71.2416 22.539C71.4026 22.6882 71.4831 22.8669 71.4831 23.0753C71.4831 23.286 71.4026 23.4671 71.2416 23.6186C71.083 23.7677 70.8913 23.8423 70.6663 23.8423Z" fill="#12141D"/>
<path d="M75.0884 32.1591C74.5983 32.1591 74.1781 32.0916 73.8277 31.9567C73.4797 31.8241 73.2027 31.643 72.9968 31.4133C72.7908 31.1837 72.6571 30.9256 72.5955 30.6392L73.9946 30.451C74.0373 30.5599 74.1047 30.6617 74.1971 30.7564C74.2894 30.8511 74.4113 30.9268 74.5628 30.9836C74.7167 31.0428 74.9037 31.0724 75.1239 31.0724C75.453 31.0724 75.7241 30.9919 75.9371 30.8309C76.1526 30.6723 76.2603 30.406 76.2603 30.0319V29.0341H76.1964C76.1301 29.1856 76.0306 29.3288 75.8981 29.4638C75.7655 29.5987 75.595 29.7088 75.3867 29.794C75.1784 29.8792 74.9298 29.9219 74.641 29.9219C74.2314 29.9219 73.8585 29.8272 73.5223 29.6378C73.1885 29.446 72.9222 29.1536 72.7233 28.7606C72.5268 28.3653 72.4286 27.8657 72.4286 27.2621C72.4286 26.6442 72.5292 26.1281 72.7304 25.7138C72.9317 25.2995 73.1992 24.9893 73.533 24.7834C73.8692 24.5774 74.2373 24.4744 74.6374 24.4744C74.9428 24.4744 75.1985 24.5265 75.4045 24.6307C75.6104 24.7325 75.7761 24.8603 75.9016 25.0142C76.0295 25.1657 76.1277 25.3148 76.1964 25.4616H76.2532V24.5454H77.7553V30.0532C77.7553 30.5173 77.6417 30.9055 77.4144 31.218C77.1871 31.5305 76.8723 31.7649 76.4698 31.9211C76.0697 32.0798 75.6092 32.1591 75.0884 32.1591ZM75.1204 28.7855C75.3642 28.7855 75.5702 28.7251 75.7383 28.6044C75.9087 28.4813 76.0389 28.3061 76.1289 28.0788C76.2212 27.8492 76.2674 27.5746 76.2674 27.255C76.2674 26.9353 76.2224 26.6584 76.1324 26.424C76.0425 26.1872 75.9123 26.0038 75.7418 25.8736C75.5714 25.7433 75.3642 25.6782 75.1204 25.6782C74.8718 25.6782 74.6623 25.7457 74.4918 25.8807C74.3214 26.0132 74.1923 26.1979 74.1047 26.4346C74.0171 26.6714 73.9733 26.9448 73.9733 27.255C73.9733 27.5698 74.0171 27.8421 74.1047 28.0717C74.1947 28.299 74.3237 28.4754 74.4918 28.6008C74.6623 28.7239 74.8718 28.7855 75.1204 28.7855Z" fill="#12141D"/>
<path d="M80.4719 26.8466V30H78.9591V24.5454H80.4009V25.5078H80.4648C80.5856 25.1906 80.788 24.9396 81.0721 24.7549C81.3562 24.5679 81.7006 24.4744 82.1054 24.4744C82.4842 24.4744 82.8145 24.5573 83.0962 24.723C83.3779 24.8887 83.5969 25.1255 83.7532 25.4332C83.9094 25.7386 83.9875 26.1032 83.9875 26.527V30H82.4748V26.7969C82.4771 26.463 82.3919 26.2026 82.2191 26.0156C82.0463 25.8262 81.8083 25.7315 81.5053 25.7315C81.3017 25.7315 81.1218 25.7753 80.9655 25.8629C80.8116 25.9505 80.6909 26.0783 80.6033 26.2464C80.5181 26.4121 80.4743 26.6122 80.4719 26.8466Z" fill="#12141D"/>
<path d="M35.9499 10.7274C32.7098 8.04054 28.6938 7.76129 26.1525 8.13111C25.0705 8.30042 24.0139 8.60469 23.0075 9.03681C22.049 9.44361 19.1885 10.6595 17.4224 13.5222C15.208 17.1111 16.1688 20.8735 16.4473 21.8244C17.83 26.5469 21.9947 28.6103 22.7736 28.9779C27.5413 31.227 32.0343 29.6474 32.7679 29.3764C34.4336 28.7284 35.9315 27.7126 37.1499 26.405C37.7499 25.7559 39.119 24.1249 39.716 21.8108C40.6776 18.0922 39.3945 13.5849 35.9499 10.7274Z" fill="#88CCFF"/>
<path d="M30.8485 25.1155C30.6826 25.0937 30.5182 25.0612 30.3564 25.0181C30.247 24.9895 30.1391 24.9555 30.0327 24.9178L29.9459 24.8853C29.847 24.8476 30.0213 24.9193 29.9217 24.8747C29.85 24.8415 29.7783 24.8106 29.7074 24.7751C29.3085 24.5772 28.9553 24.2983 28.6703 23.9562L28.6205 23.8966C28.6877 23.9758 28.6266 23.9041 28.6145 23.8883C28.5798 23.843 28.5458 23.7962 28.5126 23.7494C28.4353 23.6373 28.3662 23.5197 28.3058 23.3977C28.3013 23.3894 28.2552 23.2898 28.2892 23.3668C28.2756 23.3358 28.2628 23.3041 28.2507 23.2724C28.2252 23.2074 28.203 23.1412 28.1843 23.0739C28.1647 23.0067 28.1488 22.9388 28.136 22.8709C28.136 22.8528 28.1201 22.7547 28.1322 22.855C28.1277 22.8165 28.1232 22.7796 28.1201 22.7388C28.1111 22.622 28.1111 22.5047 28.1201 22.3879C28.1201 22.3584 28.1262 22.329 28.1284 22.2995C28.1367 22.1999 28.1126 22.3811 28.1284 22.2822C28.1405 22.2135 28.1533 22.1448 28.17 22.0769C28.1993 21.9579 28.2363 21.8409 28.2809 21.7267C28.2922 21.6973 28.3043 21.6686 28.3164 21.6399C28.2817 21.7237 28.3224 21.6271 28.3284 21.615C28.3601 21.5478 28.3949 21.4814 28.4311 21.4165C28.5065 21.2828 28.5901 21.154 28.6817 21.0308C28.702 21.0037 28.7232 20.9772 28.7436 20.9508C28.7639 20.9244 28.7715 20.9153 28.7436 20.9508C28.7579 20.9327 28.773 20.9154 28.7881 20.898C28.8402 20.8369 28.8953 20.7772 28.9511 20.7191C29.067 20.5999 29.1894 20.4872 29.3179 20.3817L29.4032 20.3131C29.4138 20.3048 29.5277 20.2202 29.4711 20.261C29.5421 20.2104 29.6145 20.1614 29.6877 20.11L29.2107 19.5198C29.1051 19.6205 28.9964 19.7181 28.8847 19.8127C28.8087 19.8761 28.7317 19.938 28.6537 19.9983L28.5934 20.0444C28.5481 20.0783 28.539 20.0814 28.5934 20.0444C28.5405 20.0798 28.4907 20.1198 28.4424 20.1546C28.2208 20.3091 27.9907 20.4512 27.7533 20.5802C27.62 20.6537 27.4836 20.7229 27.3443 20.7878C27.2763 20.8195 27.2077 20.8504 27.1382 20.8806L27.0318 20.9259L27.0016 20.938L26.9548 20.9561C26.6176 21.0861 26.2712 21.191 25.9186 21.2701C25.7336 21.3116 25.5465 21.3456 25.3585 21.3727C25.2974 21.3818 25.2038 21.3931 25.1004 21.4029C24.997 21.4127 24.8898 21.421 24.7842 21.4263C24.393 21.4472 24.0008 21.4371 23.6113 21.3961L23.4853 21.3818C23.5698 21.3916 23.4309 21.3742 23.4098 21.372C23.3253 21.3591 23.24 21.3456 23.1554 21.3305C22.9969 21.3018 22.8384 21.2686 22.6822 21.2293C22.3876 21.1569 22.0975 21.0672 21.8135 20.9606L21.729 20.9282C21.6293 20.8897 21.7909 20.9538 21.7139 20.9221C21.6626 20.901 21.6112 20.8799 21.5629 20.8572C21.4807 20.8218 21.3991 20.7818 21.3191 20.7455V21.3946C22.1368 21.0424 22.9579 20.6985 23.7826 20.3629C24.203 20.1915 24.5653 20.0459 25.0023 19.8738C25.4393 19.7017 25.8672 19.5334 26.302 19.3666C28.0731 18.6858 29.8593 18.041 31.6606 17.4322C32.6358 17.1021 33.6152 16.7831 34.5989 16.4752L34.1 16.1122C34.0497 17.0853 33.9586 18.0549 33.8268 19.0209C33.8268 19.0451 33.82 19.0692 33.8169 19.0926C33.826 19.0255 33.8169 19.0874 33.8169 19.0994C33.8086 19.1523 33.8011 19.2051 33.7936 19.2579C33.7807 19.3447 33.7679 19.4315 33.7543 19.5183C33.7422 19.5938 33.7302 19.6693 33.7173 19.7447C33.6846 19.9354 33.6494 20.1259 33.6117 20.3161C33.3218 21.7984 32.9996 23.2762 32.6712 24.7517C32.5648 25.2317 32.4161 25.7216 32.3693 26.2121C32.3605 26.4472 32.3806 26.6824 32.429 26.9125C32.6041 28.0205 32.8758 29.1171 33.1415 30.2078C33.2013 30.4523 33.2615 30.6968 33.3218 30.9414C33.3671 31.1217 33.6139 31.2795 33.8064 31.204C34.8897 30.7809 35.9099 30.211 36.8382 29.5104C37.7745 28.8006 38.6003 27.9559 39.2888 27.0039C40.0872 25.918 40.6759 24.6927 41.0248 23.3909C41.3326 22.1928 41.4254 20.9496 41.2987 19.7191C41.1659 18.4195 40.8178 17.151 40.2685 15.9657C39.0751 13.3928 36.9833 11.3442 34.386 10.2048C33.1358 9.66108 31.8097 9.31187 30.4538 9.16927C29.3239 9.04661 28.1831 9.06435 27.0575 9.2221C25.9028 9.39546 24.776 9.72055 23.7064 10.1889C22.9703 10.4963 22.2601 10.8623 21.5825 11.2833C20.4985 11.9581 19.5335 12.8076 18.7266 13.7974C17.7708 14.9831 17.1062 16.3764 16.7862 17.8654C16.3805 19.8392 16.5007 21.885 17.1348 23.7977C17.5061 24.8789 18.0508 25.8924 18.7477 26.7986C19.3888 27.6292 20.1315 28.3762 20.9584 29.0221C21.7033 29.6036 22.4984 30.1179 23.3343 30.5587C24.0158 30.9166 24.7191 31.2312 25.44 31.5006C25.868 31.6614 26.3027 31.8078 26.745 31.9286C26.8205 31.9505 26.9035 31.9716 26.9843 31.9897C27.1835 32.0357 27.4205 31.9301 27.468 31.7278C27.4808 31.6794 27.4838 31.6289 27.4769 31.5793C27.4699 31.5297 27.4532 31.482 27.4276 31.4389C27.402 31.3959 27.3682 31.3583 27.3279 31.3285C27.2877 31.2986 27.2419 31.2771 27.1933 31.2652C26.9329 31.2055 26.6763 31.127 26.4227 31.0455C26.1691 30.964 25.9201 30.8772 25.6718 30.7844L25.4506 30.6998L25.3404 30.6561L25.2921 30.6372C25.4189 30.6855 25.3344 30.6538 25.3049 30.6417C25.1399 30.5748 24.9759 30.5054 24.8129 30.4334C24.0608 30.1018 23.3343 29.715 22.6392 29.2764C22.4414 29.1521 22.2475 29.0233 22.0573 28.89L21.9267 28.7979C21.8965 28.776 21.7871 28.7224 21.7758 28.6885C21.7758 28.6922 21.8512 28.7451 21.7954 28.7028L21.7652 28.6809L21.6958 28.6281C21.6452 28.5903 21.5954 28.5526 21.5448 28.5134C21.1578 28.2127 20.7882 27.8904 20.4376 27.548C20.257 27.3704 20.0809 27.188 19.9093 27.0008C19.8217 26.9032 19.7362 26.8046 19.6527 26.705L19.5915 26.6295L19.5659 26.5978C19.5319 26.5578 19.6089 26.6522 19.5757 26.6106C19.5334 26.5571 19.4904 26.5035 19.4489 26.4499C19.1225 26.0293 18.8286 25.5844 18.5696 25.1193C18.4353 24.8778 18.313 24.631 18.1975 24.3811C18.1915 24.3675 18.1862 24.354 18.1794 24.3404C18.2141 24.4159 18.1907 24.3653 18.1839 24.3494L18.1424 24.2543C18.1137 24.1857 18.0851 24.117 18.0579 24.0475C18.0076 23.9172 17.9573 23.7856 17.9069 23.6528C17.796 23.3351 17.7009 23.012 17.6224 22.686C17.5809 22.5131 17.5469 22.3388 17.5115 22.1645C17.4926 22.0641 17.4745 21.9629 17.4586 21.8626C17.4496 21.8082 17.4413 21.7546 17.4337 21.7003C17.432 21.6843 17.4295 21.6684 17.4262 21.6527C17.4262 21.6527 17.4375 21.735 17.4322 21.692C17.4269 21.649 17.4232 21.6271 17.4194 21.5939C17.3506 21.0611 17.3199 20.5241 17.3273 19.987C17.3318 19.674 17.3499 19.3611 17.3816 19.0481C17.3892 18.9726 17.3975 18.9024 17.4066 18.8292L17.4224 18.71C17.4299 18.6504 17.4133 18.7673 17.4224 18.71C17.4224 18.6866 17.4292 18.6639 17.433 18.6413C17.4586 18.4722 17.4888 18.3039 17.5235 18.1364C17.5945 17.7918 17.6845 17.4514 17.793 17.1167C17.8503 16.9394 17.913 16.7627 17.9809 16.5884C18.0126 16.5084 18.0451 16.4292 18.0783 16.3499C18.1168 16.2586 18.1266 16.2367 18.1771 16.128C18.4911 15.4573 18.8828 14.8258 19.344 14.2464C19.3591 14.2276 19.3734 14.2087 19.3885 14.1906L19.3825 14.1981L19.4617 14.103C19.5176 14.0366 19.5749 13.9702 19.633 13.9053C19.7427 13.7815 19.8554 13.6605 19.9712 13.5423C20.1885 13.3158 20.4172 13.106 20.6504 12.9022C20.7657 12.8041 20.8829 12.7078 21.0022 12.6132C21.0542 12.5717 21.1063 12.5317 21.1591 12.4909L21.2437 12.4275L21.292 12.3913C21.2678 12.4094 21.249 12.423 21.2844 12.3973C21.5041 12.2381 21.7282 12.0848 21.9577 11.9399C22.3528 11.6909 22.7607 11.4626 23.1796 11.2561C24.0753 10.8061 25.0165 10.4531 25.9872 10.2033C26.3851 10.0999 26.7882 10.0181 27.1948 9.95798C27.2477 9.95043 27.3012 9.94666 27.3533 9.93609C27.2378 9.95873 27.3314 9.93609 27.3601 9.93609L27.4612 9.92477C27.5865 9.91043 27.7118 9.89835 27.8386 9.88779C28.0998 9.8659 28.3617 9.85231 28.6228 9.84628C29.1998 9.8329 29.7771 9.85584 30.3512 9.91496C30.4198 9.92175 30.4885 9.9293 30.5565 9.9376L30.6674 9.95043C30.5791 9.93986 30.6923 9.95043 30.7217 9.95873C30.8777 9.97986 31.0332 10.005 31.1882 10.0342C31.5016 10.0891 31.8123 10.155 32.1203 10.2319C32.438 10.312 32.7535 10.4033 33.0637 10.5074C33.2252 10.5618 33.386 10.6199 33.5445 10.6803L33.6607 10.7256L33.7105 10.7452C33.6954 10.7391 33.6449 10.7188 33.7158 10.7452C33.7868 10.7716 33.8705 10.8093 33.9475 10.8425C34.6017 11.1273 35.2281 11.4721 35.8185 11.8728C35.888 11.9196 35.9566 11.9679 36.0246 12.0162L36.1348 12.0954L36.1491 12.106L36.2117 12.1535C36.3627 12.2675 36.5091 12.3845 36.6525 12.506C36.9096 12.7208 37.1559 12.9473 37.3914 13.1853C37.6239 13.4185 37.8443 13.6623 38.0563 13.9136L38.1318 14.0064C38.1597 14.0404 38.1318 14.0019 38.1243 13.9966C38.1386 14.0147 38.1522 14.0328 38.1665 14.0502C38.2201 14.1174 38.2722 14.1845 38.3235 14.2525C38.4231 14.3838 38.519 14.5166 38.6126 14.6517C38.9773 15.1741 39.2974 15.7263 39.5696 16.3024L39.6179 16.4073C39.6255 16.4246 39.6692 16.525 39.6383 16.4533C39.6692 16.5242 39.6994 16.5944 39.7289 16.6654C39.7897 16.8128 39.8474 16.9607 39.9017 17.1092C40.0079 17.4005 40.1022 17.6954 40.1847 17.9937C40.2672 18.2921 40.3362 18.5905 40.3915 18.8889C40.4202 19.0398 40.4444 19.1908 40.467 19.347C40.4549 19.2715 40.467 19.3613 40.4723 19.3893C40.4776 19.4172 40.4821 19.4647 40.4866 19.5002C40.4949 19.5757 40.5032 19.6512 40.5108 19.7213C40.5716 20.3212 40.5812 20.9252 40.5395 21.5267C40.5289 21.6776 40.5148 21.8271 40.4972 21.975C40.4896 22.0414 40.4806 22.1078 40.4723 22.1743C40.464 22.2407 40.4821 22.1101 40.4723 22.166L40.4655 22.212C40.4594 22.2528 40.4534 22.2935 40.4466 22.3335C40.3988 22.6223 40.3382 22.9089 40.2647 23.1932C40.1722 23.5475 40.0596 23.8962 39.9274 24.2377C39.8964 24.3185 39.8647 24.3985 39.8315 24.4785L39.7817 24.5955L39.7598 24.6453L39.7485 24.671C39.679 24.8219 39.6051 24.9781 39.5281 25.1291C39.2601 25.6515 38.952 26.1524 38.6066 26.6273C38.5326 26.7279 38.4571 26.8285 38.3801 26.9291L38.2828 27.0522C38.2737 27.0642 38.2624 27.0763 38.2541 27.0884L38.279 27.0575L38.2231 27.1261C38.1079 27.266 37.9889 27.4031 37.8661 27.5375C37.3839 28.0672 36.8533 28.5508 36.2812 28.982C36.2668 28.9926 36.177 29.0575 36.2284 29.0221L36.1408 29.0855C36.0653 29.1375 35.9959 29.1881 35.9227 29.2364C35.7868 29.33 35.6495 29.4198 35.5098 29.5074C35.2583 29.6638 35.0026 29.8108 34.743 29.9481C34.5262 30.0618 34.3065 30.1693 34.0841 30.2704C33.9835 30.3152 33.8846 30.3582 33.7875 30.3995L33.6607 30.4523C33.5769 30.4863 33.7309 30.4244 33.6713 30.4478L33.5996 30.4764L34.0841 30.7383C33.7679 29.4704 33.4479 28.1971 33.2245 26.9103C33.2124 26.8431 33.2011 26.7767 33.1905 26.7095C33.1867 26.6816 33.1822 26.6537 33.1777 26.6257C33.1777 26.6137 33.1777 26.6008 33.1724 26.5888C33.1618 26.5171 33.1875 26.699 33.1799 26.6423C33.1724 26.5857 33.1626 26.514 33.1573 26.4491C33.1531 26.3903 33.1531 26.3313 33.1573 26.2725C33.1573 26.2114 33.189 26.0461 33.1573 26.2272C33.1694 26.1616 33.1799 26.0959 33.1935 26.031C33.2494 25.7608 33.3128 25.4921 33.3724 25.2234C33.6974 23.7683 34.0092 22.3091 34.3075 20.8459C34.5693 19.5362 34.7483 18.2112 34.8434 16.879C34.8625 16.6224 34.8786 16.3658 34.8917 16.1091C34.9038 15.8729 34.6291 15.6729 34.3928 15.7469C32.6081 16.3074 30.8357 16.9029 29.0756 17.5333C27.2783 18.1774 25.4964 18.8567 23.7298 19.5712C22.7904 19.9505 21.8555 20.3405 20.9252 20.741C20.6587 20.855 20.6761 21.2693 20.9252 21.3901C22.0322 21.9245 23.247 22.198 24.4762 22.1894C25.9688 22.1733 27.426 21.7324 28.6771 20.9184C29.069 20.6636 29.4368 20.3735 29.776 20.0519C29.8423 19.9887 29.8822 19.9028 29.8878 19.8114C29.8934 19.72 29.8643 19.6299 29.8062 19.5591C29.7464 19.4858 29.6628 19.436 29.5699 19.4182C29.4771 19.4004 29.3809 19.4158 29.2983 19.4617C28.2243 20.1515 27.3428 21.258 27.3261 22.5343C27.3111 23.6626 28.0809 24.68 29.0439 25.2747C29.5306 25.5722 30.0741 25.7648 30.6395 25.8401C30.8425 25.8665 31.0719 25.7933 31.124 25.5774C31.1663 25.4008 31.0667 25.1442 30.8485 25.1155V25.1155Z" fill="#010101"/>
</svg>
