<svg width="150" height="40" viewBox="0 0 150 40" fill="none" xmlns="http://www.w3.org/2000/svg">
<path d="M0 20C0 8.95431 8.95431 0 20 0H130C141.046 0 150 8.95431 150 20V20C150 31.0457 141.046 40 130 40H20C8.9543 40 0 31.0457 0 20V20Z" fill="white"/>
<path fill-rule="evenodd" clip-rule="evenodd" d="M130 2H20C10.0589 2 2 10.0589 2 20C2 29.9411 10.0589 38 20 38H130C139.941 38 148 29.9411 148 20C148 10.0589 139.941 2 130 2ZM20 0C8.95431 0 0 8.95431 0 20C0 31.0457 8.9543 40 20 40H130C141.046 40 150 31.0457 150 20C150 8.95431 141.046 0 130 0H20Z" fill="#12141D"/>
<path d="M54.8976 10.7273H56.4175V15.7983C56.4175 16.2671 56.3121 16.6743 56.1014 17.0199C55.8931 17.3656 55.6031 17.6319 55.2314 17.8189C54.8597 18.0059 54.4277 18.0995 53.9352 18.0995C53.4973 18.0995 53.0995 18.0225 52.742 17.8686C52.3869 17.7124 52.1052 17.4756 51.8969 17.1584C51.6885 16.8388 51.5856 16.4375 51.5879 15.9546H53.1185C53.1232 16.1463 53.1623 16.3109 53.2357 16.4482C53.3114 16.5831 53.4144 16.6873 53.5446 16.7607C53.6772 16.8317 53.8334 16.8672 54.0134 16.8672C54.2028 16.8672 54.3626 16.827 54.4928 16.7465C54.6253 16.6636 54.726 16.5429 54.7946 16.3843C54.8633 16.2256 54.8976 16.0303 54.8976 15.7983V10.7273Z" fill="#12141D"/>
<path d="M59.2158 18.103C58.8678 18.103 58.5576 18.0426 58.2854 17.9219C58.0131 17.7988 57.7977 17.6177 57.6391 17.3786C57.4828 17.1371 57.4047 16.8364 57.4047 16.4766C57.4047 16.1736 57.4603 15.9191 57.5716 15.7131C57.6829 15.5071 57.8344 15.3414 58.0261 15.2159C58.2179 15.0905 58.4357 14.9958 58.6796 14.9318C58.9258 14.8679 59.1838 14.8229 59.4537 14.7969C59.7709 14.7638 60.0266 14.733 60.2207 14.7046C60.4149 14.6738 60.5557 14.6288 60.6433 14.5696C60.7309 14.5104 60.7747 14.4228 60.7747 14.3068V14.2855C60.7747 14.0606 60.7037 13.8866 60.5617 13.7635C60.422 13.6404 60.2231 13.5789 59.9651 13.5789C59.6928 13.5789 59.4762 13.6392 59.3152 13.76C59.1542 13.8783 59.0477 14.0275 58.9956 14.2074L57.5965 14.0938C57.6675 13.7623 57.8072 13.4759 58.0155 13.2344C58.2238 12.9906 58.4925 12.8035 58.8216 12.6733C59.153 12.5407 59.5366 12.4745 59.9722 12.4745C60.2752 12.4745 60.5652 12.51 60.8422 12.581C61.1215 12.652 61.3689 12.7621 61.5844 12.9112C61.8022 13.0604 61.9738 13.2522 62.0993 13.4865C62.2248 13.7185 62.2875 13.9967 62.2875 14.321V18H60.8528V17.2436H60.8102C60.7226 17.4141 60.6054 17.5644 60.4587 17.6946C60.3119 17.8225 60.1355 17.9231 59.9296 17.9965C59.7236 18.0675 59.4857 18.103 59.2158 18.103ZM59.649 17.059C59.8715 17.059 60.068 17.0152 60.2385 16.9276C60.409 16.8376 60.5427 16.7169 60.6398 16.5654C60.7368 16.4138 60.7854 16.2422 60.7854 16.0504V15.4716C60.738 15.5024 60.6729 15.5308 60.5901 15.5568C60.5096 15.5805 60.4184 15.603 60.3166 15.6243C60.2148 15.6433 60.113 15.661 60.0112 15.6776C59.9094 15.6918 59.8171 15.7048 59.7342 15.7166C59.5567 15.7427 59.4016 15.7841 59.269 15.8409C59.1365 15.8977 59.0335 15.9747 58.9601 16.0718C58.8867 16.1665 58.85 16.2848 58.85 16.4269C58.85 16.6328 58.9246 16.7903 59.0737 16.8992C59.2252 17.0057 59.417 17.059 59.649 17.059Z" fill="#12141D"/>
<path d="M65.9256 18.1066C65.3669 18.1066 64.8863 17.9882 64.4839 17.7514C64.0838 17.5123 63.776 17.1809 63.5606 16.7571C63.3475 16.3334 63.241 15.8457 63.241 15.2941C63.241 14.7353 63.3487 14.2453 63.5641 13.8239C63.7819 13.4001 64.0909 13.0699 64.491 12.8331C64.8911 12.594 65.3669 12.4745 65.9185 12.4745C66.3944 12.4745 66.8111 12.5609 67.1685 12.7337C67.526 12.9065 67.8089 13.1492 68.0173 13.4617C68.2256 13.7742 68.3404 14.1411 68.3617 14.5625H66.9342C66.8939 14.2903 66.7874 14.0713 66.6146 13.9056C66.4441 13.7375 66.2204 13.6534 65.9434 13.6534C65.709 13.6534 65.5042 13.7174 65.3291 13.8452C65.1562 13.9707 65.0213 14.1541 64.9242 14.3956C64.8272 14.6371 64.7786 14.9295 64.7786 15.2727C64.7786 15.6208 64.826 15.9167 64.9207 16.1605C65.0177 16.4044 65.1539 16.5902 65.3291 16.7181C65.5042 16.8459 65.709 16.9098 65.9434 16.9098C66.1162 16.9098 66.2713 16.8743 66.4086 16.8033C66.5483 16.7323 66.6631 16.6293 66.7531 16.4943C66.8454 16.357 66.9058 16.1925 66.9342 16.0007H68.3617C68.338 16.4174 68.2244 16.7844 68.0208 17.1016C67.8196 17.4165 67.5414 17.6627 67.1863 17.8402C66.8312 18.0178 66.411 18.1066 65.9256 18.1066Z" fill="#12141D"/>
<path d="M70.701 16.4304L70.7046 14.6158H70.9248L72.6719 12.5455H74.4084L72.0611 15.287H71.7025L70.701 16.4304ZM69.3303 18V10.7273H70.8431V18H69.3303ZM72.7394 18L71.1343 15.6243L72.1428 14.5554L74.5114 18H72.7394Z" fill="#12141D"/>
<path d="M77.4651 18V12.5455H78.9317V13.4972H78.9885C79.0879 13.1586 79.2548 12.903 79.4892 12.7301C79.7236 12.5549 79.9935 12.4674 80.2989 12.4674C80.3746 12.4674 80.4563 12.4721 80.5439 12.4816C80.6315 12.491 80.7084 12.504 80.7747 12.5206V13.8629C80.7037 13.8416 80.6055 13.8227 80.48 13.8061C80.3545 13.7896 80.2397 13.7813 80.1355 13.7813C79.913 13.7813 79.7141 13.8298 79.5389 13.9269C79.3661 14.0216 79.2288 14.1541 79.127 14.3246C79.0276 14.4951 78.9778 14.6915 78.9778 14.9141V18H77.4651Z" fill="#12141D"/>
<path d="M83.7887 18.1066C83.2277 18.1066 82.7447 17.9929 82.3399 17.7656C81.9374 17.536 81.6273 17.2117 81.4095 16.7926C81.1917 16.3712 81.0828 15.8729 81.0828 15.2976C81.0828 14.7365 81.1917 14.2441 81.4095 13.8203C81.6273 13.3966 81.9339 13.0663 82.3292 12.8296C82.727 12.5928 83.1933 12.4745 83.7284 12.4745C84.0882 12.4745 84.4232 12.5325 84.7333 12.6485C85.0458 12.7621 85.3181 12.9337 85.5501 13.1634C85.7845 13.393 85.9668 13.6818 86.097 14.0299C86.2272 14.3755 86.2923 14.7803 86.2923 15.2443V15.6598H81.6865V14.7223H84.8683C84.8683 14.5045 84.8209 14.3116 84.7262 14.1435C84.6315 13.9754 84.5002 13.844 84.3321 13.7493C84.1663 13.6522 83.9734 13.6037 83.7532 13.6037C83.5236 13.6037 83.32 13.657 83.1424 13.7635C82.9673 13.8677 82.8299 14.0085 82.7305 14.1861C82.6311 14.3613 82.5802 14.5566 82.5778 14.772V15.6634C82.5778 15.9333 82.6275 16.1665 82.727 16.3629C82.8288 16.5594 82.972 16.711 83.1566 16.8175C83.3413 16.924 83.5603 16.9773 83.8136 16.9773C83.9817 16.9773 84.1356 16.9536 84.2752 16.9063C84.4149 16.8589 84.5345 16.7879 84.6339 16.6932C84.7333 16.5985 84.8091 16.4825 84.8612 16.3452L86.2603 16.4375C86.1893 16.7737 86.0437 17.0673 85.8235 17.3182C85.6057 17.5668 85.324 17.7609 84.9784 17.9006C84.6351 18.0379 84.2386 18.1066 83.7887 18.1066Z" fill="#12141D"/>
<path d="M90.8839 20.0455V17.1264H90.8377C90.7667 17.278 90.6661 17.4283 90.5359 17.5774C90.4081 17.7242 90.2412 17.8461 90.0352 17.9432C89.8316 18.0403 89.583 18.0888 89.2895 18.0888C88.8752 18.0888 88.4999 17.9823 88.1637 17.7692C87.8299 17.5538 87.5648 17.2377 87.3683 16.821C87.1742 16.402 87.0771 15.8883 87.0771 15.2799C87.0771 14.6549 87.1777 14.1352 87.3789 13.7209C87.5802 13.3042 87.8477 12.9929 88.1815 12.787C88.5177 12.5786 88.8858 12.4745 89.2859 12.4745C89.5913 12.4745 89.8458 12.5265 90.0494 12.6307C90.2554 12.7325 90.4211 12.8603 90.5466 13.0142C90.6744 13.1657 90.7715 13.3149 90.8377 13.4617H90.9017V12.5455H92.3932V20.0455H90.8839ZM89.7689 16.885C90.0127 16.885 90.2187 16.8187 90.3868 16.6861C90.5572 16.5512 90.6874 16.3629 90.7774 16.1215C90.8697 15.88 90.9159 15.5971 90.9159 15.2727C90.9159 14.9484 90.8709 14.6667 90.7809 14.4276C90.691 14.1885 90.5608 14.0038 90.3903 13.8736C90.2199 13.7434 90.0127 13.6783 89.7689 13.6783C89.5203 13.6783 89.3108 13.7458 89.1403 13.8807C88.9699 14.0156 88.8408 14.2027 88.7532 14.4418C88.6656 14.6809 88.6218 14.9579 88.6218 15.2727C88.6218 15.59 88.6656 15.8705 88.7532 16.1144C88.8432 16.3558 88.9722 16.5452 89.1403 16.6826C89.3108 16.8175 89.5203 16.885 89.7689 16.885Z" fill="#12141D"/>
<path d="M97.1055 15.6776V12.5455H98.6183V18H97.1659V17.0093H97.1091C96.986 17.3289 96.7812 17.5857 96.4947 17.7799C96.2106 17.974 95.8638 18.071 95.4542 18.071C95.0896 18.071 94.7689 17.9882 94.4919 17.8225C94.2149 17.6567 93.9983 17.4212 93.842 17.1158C93.6881 16.8104 93.61 16.4446 93.6076 16.0185V12.5455H95.1204V15.7486C95.1228 16.0706 95.2092 16.3251 95.3797 16.5121C95.5501 16.6991 95.7786 16.7926 96.065 16.7926C96.2473 16.7926 96.4178 16.7512 96.5764 16.6683C96.735 16.5831 96.8628 16.4576 96.9599 16.2919C97.0593 16.1262 97.1079 15.9214 97.1055 15.6776Z" fill="#12141D"/>
<path d="M102.314 18.1066C101.753 18.1066 101.27 17.9929 100.865 17.7656C100.463 17.536 100.153 17.2117 99.9349 16.7926C99.7171 16.3712 99.6082 15.8729 99.6082 15.2976C99.6082 14.7365 99.7171 14.2441 99.9349 13.8203C100.153 13.3966 100.459 13.0663 100.855 12.8296C101.252 12.5928 101.719 12.4745 102.254 12.4745C102.614 12.4745 102.949 12.5325 103.259 12.6485C103.571 12.7621 103.843 12.9337 104.076 13.1634C104.31 13.393 104.492 13.6818 104.622 14.0299C104.753 14.3755 104.818 14.7803 104.818 15.2443V15.6598H100.212V14.7223H103.394C103.394 14.5045 103.346 14.3116 103.252 14.1435C103.157 13.9754 103.026 13.844 102.857 13.7493C102.692 13.6522 102.499 13.6037 102.279 13.6037C102.049 13.6037 101.845 13.657 101.668 13.7635C101.493 13.8677 101.355 14.0085 101.256 14.1861C101.156 14.3613 101.106 14.5566 101.103 14.772V15.6634C101.103 15.9333 101.153 16.1665 101.252 16.3629C101.354 16.5594 101.497 16.711 101.682 16.8175C101.867 16.924 102.086 16.9773 102.339 16.9773C102.507 16.9773 102.661 16.9536 102.801 16.9063C102.94 16.8589 103.06 16.7879 103.159 16.6932C103.259 16.5985 103.334 16.4825 103.387 16.3452L104.786 16.4375C104.715 16.7737 104.569 17.0673 104.349 17.3182C104.131 17.5668 103.849 17.7609 103.504 17.9006C103.16 18.0379 102.764 18.1066 102.314 18.1066Z" fill="#12141D"/>
<path d="M110.343 14.1009L108.958 14.1861C108.935 14.0677 108.884 13.9612 108.806 13.8665C108.727 13.7694 108.625 13.6925 108.497 13.6357C108.371 13.5765 108.221 13.5469 108.046 13.5469C107.811 13.5469 107.614 13.5966 107.453 13.696C107.292 13.7931 107.211 13.9233 107.211 14.0867C107.211 14.2169 107.263 14.327 107.367 14.4169C107.472 14.5069 107.65 14.5791 107.904 14.6335L108.891 14.8324C109.421 14.9413 109.817 15.1165 110.077 15.358C110.337 15.5995 110.468 15.9167 110.468 16.3097C110.468 16.6672 110.362 16.9808 110.151 17.2507C109.943 17.5206 109.657 17.7313 109.292 17.8828C108.93 18.032 108.512 18.1066 108.039 18.1066C107.317 18.1066 106.741 17.9562 106.313 17.6556C105.887 17.3525 105.637 16.9406 105.563 16.4198L107.051 16.3416C107.096 16.5618 107.205 16.7299 107.378 16.8459C107.551 16.9595 107.772 17.0164 108.042 17.0164C108.307 17.0164 108.52 16.9655 108.681 16.8637C108.845 16.7595 108.928 16.6257 108.93 16.4624C108.928 16.3251 108.87 16.2126 108.756 16.125C108.642 16.0351 108.467 15.9664 108.23 15.9191L107.286 15.7308C106.753 15.6243 106.357 15.4397 106.096 15.1769C105.838 14.9141 105.709 14.5791 105.709 14.1719C105.709 13.8215 105.804 13.5197 105.993 13.2664C106.185 13.013 106.454 12.8177 106.799 12.6804C107.147 12.5431 107.554 12.4745 108.021 12.4745C108.71 12.4745 109.252 12.6201 109.647 12.9112C110.045 13.2024 110.277 13.599 110.343 14.1009Z" fill="#12141D"/>
<path d="M114.321 12.5455V13.6818H111.037V12.5455H114.321ZM111.782 11.2387H113.295V16.3239C113.295 16.4636 113.316 16.5725 113.359 16.6506C113.402 16.7263 113.461 16.7796 113.537 16.8104C113.615 16.8412 113.705 16.8566 113.806 16.8566C113.878 16.8566 113.949 16.8506 114.02 16.8388C114.091 16.8246 114.145 16.8139 114.183 16.8068L114.421 17.9326C114.345 17.9562 114.239 17.9835 114.101 18.0142C113.964 18.0474 113.797 18.0675 113.601 18.0746C113.236 18.0888 112.916 18.0403 112.642 17.929C112.369 17.8177 112.158 17.6449 112.006 17.4105C111.855 17.1762 111.78 16.8802 111.782 16.5227V11.2387Z" fill="#12141D"/>
<path d="M117.734 18.1066C117.173 18.1066 116.69 17.9929 116.285 17.7656C115.883 17.536 115.573 17.2117 115.355 16.7926C115.137 16.3712 115.028 15.8729 115.028 15.2976C115.028 14.7365 115.137 14.2441 115.355 13.8203C115.573 13.3966 115.879 13.0663 116.275 12.8296C116.672 12.5928 117.139 12.4745 117.674 12.4745C118.034 12.4745 118.369 12.5325 118.679 12.6485C118.991 12.7621 119.263 12.9337 119.495 13.1634C119.73 13.393 119.912 13.6818 120.042 14.0299C120.173 14.3755 120.238 14.7803 120.238 15.2443V15.6598H115.632V14.7223H118.814C118.814 14.5045 118.766 14.3116 118.672 14.1435C118.577 13.9754 118.445 13.844 118.277 13.7493C118.112 13.6522 117.919 13.6037 117.699 13.6037C117.469 13.6037 117.265 13.657 117.088 13.7635C116.913 13.8677 116.775 14.0085 116.676 14.1861C116.576 14.3613 116.525 14.5566 116.523 14.772V15.6634C116.523 15.9333 116.573 16.1665 116.672 16.3629C116.774 16.5594 116.917 16.711 117.102 16.8175C117.287 16.924 117.506 16.9773 117.759 16.9773C117.927 16.9773 118.081 16.9536 118.221 16.9063C118.36 16.8589 118.48 16.7879 118.579 16.6932C118.679 16.5985 118.754 16.4825 118.807 16.3452L120.206 16.4375C120.135 16.7737 119.989 17.0673 119.769 17.3182C119.551 17.5668 119.269 17.7609 118.924 17.9006C118.58 18.0379 118.184 18.1066 117.734 18.1066Z" fill="#12141D"/>
<path d="M123.235 18.0888C122.82 18.0888 122.445 17.9823 122.109 17.7692C121.775 17.5538 121.51 17.2377 121.314 16.821C121.119 16.402 121.022 15.8883 121.022 15.2799C121.022 14.6549 121.123 14.1352 121.324 13.7209C121.525 13.3042 121.793 12.9929 122.127 12.787C122.463 12.5786 122.831 12.4745 123.231 12.4745C123.537 12.4745 123.791 12.5265 123.995 12.6307C124.201 12.7325 124.366 12.8603 124.492 13.0142C124.62 13.1657 124.717 13.3149 124.783 13.4617H124.829V10.7273H126.338V18H124.847V17.1264H124.783C124.712 17.278 124.611 17.4283 124.481 17.5774C124.353 17.7242 124.186 17.8461 123.981 17.9432C123.777 18.0403 123.528 18.0888 123.235 18.0888ZM123.714 16.885C123.958 16.885 124.164 16.8187 124.332 16.6861C124.503 16.5512 124.633 16.3629 124.723 16.1215C124.815 15.88 124.861 15.5971 124.861 15.2727C124.861 14.9484 124.816 14.6667 124.726 14.4276C124.636 14.1885 124.506 14.0038 124.336 13.8736C124.165 13.7434 123.958 13.6783 123.714 13.6783C123.466 13.6783 123.256 13.7458 123.086 13.8807C122.915 14.0156 122.786 14.2027 122.699 14.4418C122.611 14.6809 122.567 14.9579 122.567 15.2727C122.567 15.59 122.611 15.8705 122.699 16.1144C122.789 16.3558 122.918 16.5452 123.086 16.6826C123.256 16.8175 123.466 16.885 123.714 16.885Z" fill="#12141D"/>
<path d="M53.5126 30.103C53.1646 30.103 52.8545 30.0426 52.5822 29.9219C52.31 29.7988 52.0946 29.6177 51.9359 29.3786C51.7797 29.1371 51.7016 28.8364 51.7016 28.4766C51.7016 28.1736 51.7572 27.9191 51.8685 27.7131C51.9797 27.5071 52.1313 27.3414 52.323 27.2159C52.5148 27.0905 52.7326 26.9958 52.9764 26.9318C53.2226 26.8679 53.4807 26.8229 53.7506 26.7969C54.0678 26.7638 54.3235 26.733 54.5176 26.7046C54.7117 26.6738 54.8526 26.6288 54.9402 26.5696C55.0278 26.5104 55.0716 26.4228 55.0716 26.3068V26.2855C55.0716 26.0606 55.0006 25.8866 54.8585 25.7635C54.7188 25.6404 54.52 25.5789 54.2619 25.5789C53.9897 25.5789 53.7731 25.6392 53.6121 25.76C53.4511 25.8783 53.3446 26.0275 53.2925 26.2074L51.8933 26.0938C51.9644 25.7623 52.104 25.4759 52.3124 25.2344C52.5207 24.9906 52.7894 24.8035 53.1185 24.6733C53.4499 24.5407 53.8334 24.4745 54.269 24.4745C54.5721 24.4745 54.8621 24.51 55.1391 24.581C55.4184 24.652 55.6658 24.7621 55.8813 24.9112C56.0991 25.0604 56.2707 25.2522 56.3962 25.4865C56.5216 25.7185 56.5844 25.9967 56.5844 26.321V30H55.1497V29.2436H55.1071C55.0195 29.4141 54.9023 29.5644 54.7555 29.6946C54.6088 29.8225 54.4324 29.9231 54.2264 29.9965C54.0205 30.0675 53.7825 30.103 53.5126 30.103ZM53.9459 29.059C54.1684 29.059 54.3649 29.0152 54.5354 28.9276C54.7058 28.8376 54.8396 28.7169 54.9367 28.5654C55.0337 28.4138 55.0822 28.2422 55.0822 28.0504V27.4716C55.0349 27.5024 54.9698 27.5308 54.8869 27.5568C54.8064 27.5805 54.7153 27.603 54.6135 27.6243C54.5117 27.6433 54.4099 27.661 54.3081 27.6776C54.2063 27.6918 54.114 27.7048 54.0311 27.7166C53.8536 27.7427 53.6985 27.7841 53.5659 27.8409C53.4333 27.8978 53.3304 27.9747 53.257 28.0718C53.1836 28.1665 53.1469 28.2848 53.1469 28.4269C53.1469 28.6328 53.2215 28.7903 53.3706 28.8992C53.5221 29.0057 53.7139 29.059 53.9459 29.059Z" fill="#12141D"/>
<path d="M61.5853 26.8466V30H60.0725V24.5455H61.5142V25.5078H61.5782C61.6989 25.1906 61.9013 24.9397 62.1854 24.755C62.4695 24.568 62.814 24.4745 63.2188 24.4745C63.5976 24.4745 63.9278 24.5573 64.2096 24.723C64.4913 24.8888 64.7103 25.1255 64.8665 25.4333C65.0228 25.7387 65.1009 26.1032 65.1009 26.527V30H63.5881V26.7969C63.5905 26.4631 63.5052 26.2027 63.3324 26.0156C63.1596 25.8263 62.9217 25.7316 62.6186 25.7316C62.415 25.7316 62.2351 25.7754 62.0789 25.8629C61.925 25.9505 61.8043 26.0784 61.7167 26.2465C61.6314 26.4122 61.5876 26.6122 61.5853 26.8466Z" fill="#12141D"/>
<path d="M68.779 30.1066C68.2179 30.1066 67.7349 29.9929 67.3301 29.7656C66.9277 29.536 66.6175 29.2117 66.3997 28.7926C66.1819 28.3712 66.073 27.8729 66.073 27.2976C66.073 26.7365 66.1819 26.2441 66.3997 25.8203C66.6175 25.3966 66.9241 25.0663 67.3195 24.8296C67.7172 24.5928 68.1836 24.4745 68.7186 24.4745C69.0785 24.4745 69.4135 24.5325 69.7236 24.6485C70.0361 24.7621 70.3083 24.9337 70.5403 25.1634C70.7747 25.393 70.957 25.6818 71.0872 26.0299C71.2174 26.3755 71.2825 26.7803 71.2825 27.2443V27.6598H66.6767V26.7223H69.8585C69.8585 26.5045 69.8112 26.3116 69.7165 26.1435C69.6218 25.9754 69.4904 25.844 69.3223 25.7493C69.1566 25.6522 68.9636 25.6037 68.7435 25.6037C68.5138 25.6037 68.3102 25.657 68.1327 25.7635C67.9575 25.8677 67.8202 26.0085 67.7207 26.1861C67.6213 26.3613 67.5704 26.5566 67.568 26.772V27.6634C67.568 27.9333 67.6178 28.1665 67.7172 28.3629C67.819 28.5594 67.9622 28.711 68.1469 28.8175C68.3315 28.924 68.5505 28.9773 68.8038 28.9773C68.9719 28.9773 69.1258 28.9536 69.2655 28.9063C69.4052 28.8589 69.5247 28.7879 69.6242 28.6932C69.7236 28.5985 69.7993 28.4825 69.8514 28.3452L71.2506 28.4375C71.1796 28.7737 71.034 29.0673 70.8138 29.3182C70.596 29.5668 70.3143 29.7609 69.9686 29.9006C69.6253 30.0379 69.2288 30.1066 68.779 30.1066Z" fill="#12141D"/>
<path d="M73.3067 30L71.8223 24.5455H73.3528L74.198 28.2103H74.2477L75.1284 24.5455H76.6305L77.5254 28.1889H77.5716L78.4026 24.5455H79.9296L78.4487 30H76.8472L75.9097 26.5696H75.8422L74.9047 30H73.3067Z" fill="#12141D"/>
<path d="M85.0609 30.0888C84.6466 30.0888 84.2714 29.9823 83.9352 29.7692C83.6014 29.5538 83.3363 29.2377 83.1398 28.821C82.9456 28.402 82.8486 27.8883 82.8486 27.2799C82.8486 26.6549 82.9492 26.1352 83.1504 25.7209C83.3517 25.3042 83.6192 24.9929 83.953 24.787C84.2892 24.5786 84.6573 24.4745 85.0574 24.4745C85.3628 24.4745 85.6173 24.5265 85.8209 24.6307C86.0269 24.7325 86.1926 24.8603 86.318 25.0142C86.4459 25.1657 86.5429 25.3149 86.6092 25.4617H86.6554V22.7273H88.1646V30H86.6732V29.1264H86.6092C86.5382 29.278 86.4376 29.4283 86.3074 29.5774C86.1795 29.7242 86.0126 29.8461 85.8067 29.9432C85.6031 30.0403 85.3545 30.0888 85.0609 30.0888ZM85.5403 28.885C85.7842 28.885 85.9902 28.8187 86.1582 28.6861C86.3287 28.5512 86.4589 28.3629 86.5489 28.1215C86.6412 27.88 86.6874 27.5971 86.6874 27.2728C86.6874 26.9484 86.6424 26.6667 86.5524 26.4276C86.4625 26.1885 86.3322 26.0038 86.1618 25.8736C85.9913 25.7434 85.7842 25.6783 85.5403 25.6783C85.2918 25.6783 85.0822 25.7458 84.9118 25.8807C84.7413 26.0156 84.6123 26.2027 84.5247 26.4418C84.4371 26.6809 84.3933 26.9579 84.3933 27.2728C84.3933 27.59 84.4371 27.8705 84.5247 28.1144C84.6147 28.3558 84.7437 28.5452 84.9118 28.6826C85.0822 28.8175 85.2918 28.885 85.5403 28.885Z" fill="#12141D"/>
<path d="M91.8942 30.1066C91.3331 30.1066 90.8502 29.9929 90.4454 29.7656C90.0429 29.536 89.7328 29.2117 89.515 28.7926C89.2972 28.3712 89.1882 27.8729 89.1882 27.2976C89.1882 26.7365 89.2972 26.2441 89.515 25.8203C89.7328 25.3966 90.0393 25.0663 90.4347 24.8296C90.8324 24.5928 91.2988 24.4745 91.8338 24.4745C92.1937 24.4745 92.5287 24.5325 92.8388 24.6485C93.1513 24.7621 93.4236 24.9337 93.6556 25.1634C93.89 25.393 94.0722 25.6818 94.2025 26.0299C94.3327 26.3755 94.3978 26.7803 94.3978 27.2443V27.6598H89.7919V26.7223H92.9738C92.9738 26.5045 92.9264 26.3116 92.8317 26.1435C92.737 25.9754 92.6056 25.844 92.4375 25.7493C92.2718 25.6522 92.0789 25.6037 91.8587 25.6037C91.6291 25.6037 91.4255 25.657 91.2479 25.7635C91.0727 25.8677 90.9354 26.0085 90.836 26.1861C90.7365 26.3613 90.6856 26.5566 90.6833 26.772V27.6634C90.6833 27.9333 90.733 28.1665 90.8324 28.3629C90.9342 28.5594 91.0775 28.711 91.2621 28.8175C91.4468 28.924 91.6658 28.9773 91.9191 28.9773C92.0872 28.9773 92.241 28.9536 92.3807 28.9063C92.5204 28.8589 92.64 28.7879 92.7394 28.6932C92.8388 28.5985 92.9146 28.4825 92.9667 28.3452L94.3658 28.4375C94.2948 28.7737 94.1492 29.0673 93.929 29.3182C93.7112 29.5668 93.4295 29.7609 93.0838 29.9006C92.7406 30.0379 92.344 30.1066 91.8942 30.1066Z" fill="#12141D"/>
<path d="M99.9233 26.1009L98.5384 26.1861C98.5147 26.0677 98.4638 25.9612 98.3857 25.8665C98.3076 25.7694 98.2046 25.6925 98.0767 25.6357C97.9513 25.5765 97.8009 25.5469 97.6257 25.5469C97.3914 25.5469 97.1937 25.5966 97.0327 25.696C96.8717 25.7931 96.7912 25.9233 96.7912 26.0867C96.7912 26.2169 96.8433 26.327 96.9475 26.4169C97.0516 26.5069 97.2304 26.5791 97.4837 26.6335L98.4709 26.8324C99.0012 26.9413 99.3966 27.1165 99.657 27.358C99.9174 27.5995 100.048 27.9167 100.048 28.3097C100.048 28.6672 99.9423 28.9808 99.7316 29.2507C99.5232 29.5206 99.2368 29.7313 98.8722 29.8828C98.51 30.032 98.0921 30.1066 97.6186 30.1066C96.8966 30.1066 96.3213 29.9562 95.8928 29.6556C95.4667 29.3525 95.2169 28.9406 95.1435 28.4198L96.6314 28.3416C96.6764 28.5618 96.7853 28.7299 96.9581 28.8459C97.131 28.9595 97.3523 29.0164 97.6222 29.0164C97.8873 29.0164 98.1004 28.9655 98.2614 28.8637C98.4248 28.7595 98.5076 28.6257 98.51 28.4624C98.5076 28.3251 98.4496 28.2126 98.336 28.125C98.2223 28.0351 98.0471 27.9664 97.8104 27.9191L96.8658 27.7308C96.3331 27.6243 95.9366 27.4397 95.6762 27.1769C95.4181 26.9141 95.2891 26.5791 95.2891 26.1719C95.2891 25.8215 95.3838 25.5197 95.5732 25.2664C95.765 25.013 96.0337 24.8177 96.3793 24.6804C96.7273 24.5431 97.1345 24.4745 97.6009 24.4745C98.2898 24.4745 98.832 24.6201 99.2273 24.9112C99.625 25.2024 99.857 25.599 99.9233 26.1009Z" fill="#12141D"/>
<path d="M101 30V24.5455H102.513V30H101ZM101.76 23.8424C101.535 23.8424 101.342 23.7678 101.181 23.6186C101.023 23.4671 100.943 23.286 100.943 23.0753C100.943 22.867 101.023 22.6882 101.181 22.5391C101.342 22.3876 101.535 22.3118 101.76 22.3118C101.985 22.3118 102.177 22.3876 102.335 22.5391C102.496 22.6882 102.577 22.867 102.577 23.0753C102.577 23.286 102.496 23.4671 102.335 23.6186C102.177 23.7678 101.985 23.8424 101.76 23.8424Z" fill="#12141D"/>
<path d="M106.182 32.1591C105.692 32.1591 105.272 32.0916 104.922 31.9567C104.574 31.8241 104.297 31.643 104.091 31.4134C103.885 31.1837 103.751 30.9257 103.689 30.6392L105.088 30.451C105.131 30.5599 105.199 30.6617 105.291 30.7564C105.383 30.8511 105.505 30.9269 105.657 30.9837C105.811 31.0429 105.998 31.0725 106.218 31.0725C106.547 31.0725 106.818 30.992 107.031 30.831C107.246 30.6724 107.354 30.406 107.354 30.032V29.0341H107.29C107.224 29.1856 107.124 29.3289 106.992 29.4638C106.859 29.5987 106.689 29.7088 106.481 29.7941C106.272 29.8793 106.024 29.9219 105.735 29.9219C105.325 29.9219 104.952 29.8272 104.616 29.6378C104.282 29.446 104.016 29.1537 103.817 28.7607C103.621 28.3653 103.522 27.8658 103.522 27.2621C103.522 26.6442 103.623 26.1281 103.824 25.7138C104.025 25.2995 104.293 24.9894 104.627 24.7834C104.963 24.5774 105.331 24.4745 105.731 24.4745C106.037 24.4745 106.292 24.5265 106.498 24.6307C106.704 24.7325 106.87 24.8603 106.995 25.0142C107.123 25.1657 107.222 25.3149 107.29 25.4617H107.347V24.5455H108.849V30.0533C108.849 30.5173 108.735 30.9056 108.508 31.2181C108.281 31.5306 107.966 31.7649 107.564 31.9212C107.164 32.0798 106.703 32.1591 106.182 32.1591ZM106.214 28.7855C106.458 28.7855 106.664 28.7252 106.832 28.6044C107.003 28.4813 107.133 28.3061 107.223 28.0789C107.315 27.8492 107.361 27.5746 107.361 27.255C107.361 26.9354 107.316 26.6584 107.226 26.424C107.136 26.1873 107.006 26.0038 106.836 25.8736C106.665 25.7434 106.458 25.6783 106.214 25.6783C105.966 25.6783 105.756 25.7458 105.586 25.8807C105.415 26.0133 105.286 26.1979 105.199 26.4347C105.111 26.6714 105.067 26.9449 105.067 27.255C105.067 27.5699 105.111 27.8421 105.199 28.0718C105.289 28.299 105.418 28.4754 105.586 28.6009C105.756 28.724 105.966 28.7855 106.214 28.7855Z" fill="#12141D"/>
<path d="M111.566 26.8466V30H110.053V24.5455H111.495V25.5078H111.559C111.679 25.1906 111.882 24.9397 112.166 24.755C112.45 24.568 112.794 24.4745 113.199 24.4745C113.578 24.4745 113.908 24.5573 114.19 24.723C114.472 24.8888 114.691 25.1255 114.847 25.4333C115.003 25.7387 115.081 26.1032 115.081 26.527V30H113.569V26.7969C113.571 26.4631 113.486 26.2027 113.313 26.0156C113.14 25.8263 112.902 25.7316 112.599 25.7316C112.396 25.7316 112.216 25.7754 112.059 25.8629C111.905 25.9505 111.785 26.0784 111.697 26.2465C111.612 26.4122 111.568 26.6122 111.566 26.8466Z" fill="#12141D"/>
<path d="M34.4521 10.4351C34.0183 10.1079 32.0696 8.68581 29.0924 8.17501C27.7728 7.96343 26.4296 7.94358 25.1043 8.11607C25.1043 8.11607 24.9531 8.13421 24.8179 8.15385C23.0233 8.41077 20.1444 9.79582 18.6853 11.0751C15.7467 13.654 12.9539 20.7372 17.0886 25.9608C19.8217 29.4148 24.7136 30.9585 29.4597 29.8818C32.0605 30.1946 34.2035 29.0952 34.5148 28.9304C37.637 27.2681 38.4803 24.1594 38.815 22.924C39.5767 20.1108 38.9359 17.7971 38.6276 16.7392C38.2929 15.5884 37.3922 12.6543 34.4521 10.4351Z" fill="#91FFCA"/>
<path d="M29.3021 29.9186C29.9722 29.9921 30.6502 29.9349 31.2984 29.75C31.6113 29.6647 31.9377 29.5725 32.2135 29.404C32.5047 29.2291 32.7326 28.966 32.8641 28.6529C33.1044 28.0952 32.9842 27.4318 32.75 26.8915C32.4901 26.2923 32.0699 25.7158 31.5138 25.3357C30.9713 24.9677 30.3048 25.0161 29.7237 25.2601C29.4961 25.3622 29.2752 25.4788 29.0626 25.6092C28.959 25.6689 28.8555 25.7294 28.749 25.7861C28.6961 25.8148 28.6432 25.842 28.5888 25.8677L28.52 25.8986C28.4346 25.9379 28.585 25.8767 28.4996 25.9077C28.4513 25.9251 28.4021 25.9425 28.3485 25.9561C28.322 25.9629 28.2956 25.9697 28.2692 25.975L28.2352 25.9818C28.1755 25.9954 28.2654 25.9719 28.2714 25.9818C28.2179 25.9804 28.1644 25.9827 28.1112 25.9886C28.0485 25.9886 28.0795 25.9757 28.1248 25.9931C28.0965 25.9846 28.0677 25.9775 28.0387 25.9719L27.9964 25.9598C27.9457 25.947 27.9261 25.9077 28.0372 25.9787C28.0115 25.9621 27.9805 25.9493 27.9533 25.9342C27.883 25.8949 28.0289 25.9969 27.9873 25.9591C27.9722 25.9447 27.9556 25.9319 27.9405 25.9175C27.9253 25.9032 27.9133 25.8888 27.8997 25.8745C27.8347 25.8049 27.9435 25.9357 27.9087 25.8866C27.835 25.7825 27.7681 25.6737 27.7085 25.5609C27.6669 25.4808 27.6269 25.3999 27.5891 25.3191C27.5679 25.2753 27.5475 25.2307 27.5279 25.1861C27.5218 25.1732 27.4841 25.0863 27.5082 25.143C27.5324 25.1997 27.4931 25.109 27.4871 25.0939C27.3715 24.8272 27.2604 24.5582 27.1569 24.2877C26.9846 23.8509 26.8168 23.4126 26.6589 22.9714C26.2635 21.8608 25.9301 20.7291 25.66 19.5816C25.5731 19.2152 25.49 18.8472 25.4174 18.4777C25.4038 18.4074 25.391 18.3371 25.3781 18.2669C25.3729 18.2329 25.3668 18.1981 25.3615 18.1641L25.3547 18.1218C25.3464 18.0696 25.3487 18.1218 25.3547 18.1414C25.3396 18.0861 25.3333 18.0287 25.3358 17.9714C25.3358 17.9223 25.329 17.8724 25.329 17.8203C25.329 17.7682 25.329 17.7394 25.329 17.6986C25.3326 17.6789 25.3346 17.659 25.3351 17.6389C25.3351 17.6329 25.3177 17.7334 25.3275 17.6986C25.3275 17.6865 25.3321 17.6722 25.3351 17.6601C25.3419 17.6279 25.3508 17.5961 25.3615 17.5649C25.3668 17.5513 25.3729 17.5377 25.3774 17.5233C25.3774 17.5233 25.3313 17.6117 25.3691 17.5468C25.3857 17.5188 25.4008 17.4908 25.4189 17.4636C25.4371 17.4364 25.49 17.382 25.453 17.4145C25.4159 17.447 25.4922 17.3767 25.5028 17.3662C25.5134 17.3556 25.5436 17.3337 25.561 17.3155C25.592 17.283 25.53 17.3405 25.5315 17.3352C25.5445 17.324 25.5587 17.3143 25.5738 17.3065C25.624 17.2745 25.6762 17.2459 25.7303 17.2211C25.7416 17.2158 25.7537 17.2113 25.765 17.2052C25.8119 17.1818 25.6932 17.2294 25.7431 17.2143C25.7688 17.2075 25.793 17.1969 25.8187 17.1886C25.8821 17.1682 25.9471 17.1508 26.0121 17.1365C26.1345 17.1085 26.2584 17.0881 26.3824 17.07C26.6428 17.0403 26.9015 16.9977 27.1576 16.9423C27.7274 16.8032 28.2079 16.4692 28.4467 15.9471C28.9175 14.9179 28.6296 13.5601 27.7856 12.778C26.8614 11.9219 25.2837 11.8486 24.1948 12.4569C23.3584 12.9246 22.8491 13.7596 22.5189 14.6036C22.132 15.5927 21.9748 16.6649 21.9083 17.7145C21.8437 18.7735 21.8806 19.8362 22.0186 20.8881C22.0836 21.3898 22.1698 21.8886 22.2778 22.3835C22.4079 22.975 22.5678 23.5596 22.7569 24.135C23.0141 24.9213 23.3307 25.6869 23.7037 26.4253C24.1164 27.2463 24.6209 28.018 25.2074 28.7254C25.8263 29.4742 26.5625 30.1178 27.3873 30.6311C28.4337 31.2707 29.6121 31.6635 30.833 31.7796C32.0952 31.89 33.3666 31.7355 34.5658 31.3263C35.3323 31.0794 36.0591 30.7231 36.7238 30.2684C37.6791 29.5987 38.4856 28.7387 39.0927 27.7424C39.5537 26.9741 39.9191 26.1525 40.1808 25.2957C40.511 24.2423 40.7339 23.161 40.7694 22.0586C40.7971 20.9319 40.6637 19.807 40.3735 18.718C40.207 18.053 39.9991 17.3991 39.7508 16.7602C39.3667 15.7786 38.8569 14.8511 38.2343 14.0006C37.5247 13.0409 36.6711 12.1965 35.7037 11.4972C35.0315 11.0179 34.3113 10.6097 33.5547 10.2792C32.4576 9.7864 31.2975 9.44769 30.1076 9.2727C28.8865 9.10072 27.6484 9.08726 26.4239 9.23265C25.7073 9.31491 24.9965 9.44109 24.2953 9.61046C23.1256 9.88599 21.9964 10.3117 20.9358 10.8769C19.9136 11.428 19.0068 12.1704 18.2647 13.0636C17.5709 13.9134 17.0118 14.8648 16.6069 15.8844C16.1959 16.9185 15.926 18.0032 15.8044 19.1094C15.6766 20.2438 15.6987 21.3901 15.8702 22.5187C16.04 23.6504 16.3707 24.7519 16.8525 25.7898C17.3738 26.9133 18.0843 27.9387 18.9531 28.8214C19.8193 29.6911 20.813 30.4236 21.9 30.9938C22.6612 31.3939 23.4562 31.7262 24.2757 31.9867C24.3748 32.0134 24.4805 32.001 24.5708 31.9521C24.661 31.9031 24.7291 31.8214 24.7608 31.7237C24.7848 31.6262 24.7696 31.5231 24.7184 31.4367C24.6673 31.3502 24.5843 31.2873 24.4873 31.2613C24.3233 31.2084 24.1593 31.1532 23.9976 31.0951C23.9054 31.0618 23.814 31.0278 23.7226 30.993L23.5843 30.9394C23.5624 30.9311 23.5412 30.9213 23.5186 30.9137C23.5987 30.9409 23.545 30.9243 23.5027 30.9069C23.057 30.7242 22.6214 30.5179 22.1977 30.2888C21.7046 30.0225 21.2302 29.7228 20.7779 29.3919L20.7515 29.3722L20.6585 29.3012C20.5958 29.2536 20.5346 29.2052 20.4726 29.1561C20.3528 29.0594 20.2344 28.9604 20.1175 28.8592C19.8767 28.6491 19.6452 28.429 19.4231 28.1988C19.3128 28.0839 19.2055 27.966 19.1004 27.8466C19.0475 27.7862 18.9946 27.7242 18.9425 27.6623C18.9146 27.629 18.8866 27.595 18.8594 27.561C18.8926 27.6026 18.8246 27.5179 18.8141 27.5036C18.6297 27.2701 18.4566 27.0283 18.2934 26.7805C17.9901 26.317 17.7233 25.8307 17.4955 25.3259C17.4842 25.3002 17.4494 25.2201 17.4796 25.2904L17.4426 25.2057C17.4146 25.14 17.3874 25.0743 17.3602 25.0078C17.3099 24.8803 17.2595 24.7519 17.2091 24.6224C17.1154 24.364 17.0308 24.1018 16.956 23.8381C16.8812 23.5743 16.8147 23.3091 16.7588 23.0386C16.7301 22.9041 16.7044 22.7696 16.6832 22.6344C16.6719 22.5694 16.6613 22.5044 16.6507 22.4386C16.6462 22.4084 16.6409 22.379 16.6364 22.3487C16.6318 22.3185 16.6303 22.3087 16.628 22.2883C16.6258 22.2679 16.6167 22.2127 16.628 22.2626C16.6394 22.3125 16.622 22.221 16.6205 22.2074L16.6069 22.1016C16.5986 22.0314 16.5903 21.9603 16.5827 21.8901C16.5683 21.7541 16.5563 21.6173 16.5464 21.4805C16.5268 21.2085 16.5162 20.935 16.5139 20.6622C16.51 20.1182 16.5413 19.5745 16.6076 19.0346C16.6152 18.9703 16.6243 18.9061 16.6326 18.8411C16.6235 18.9091 16.6326 18.8578 16.6326 18.8222C16.6326 18.7867 16.6439 18.7467 16.6507 18.7036C16.6704 18.5759 16.693 18.4482 16.7164 18.3205C16.7668 18.0576 16.8253 17.7964 16.8918 17.5369C17.0218 17.0242 17.1864 16.5208 17.3844 16.0302C17.4078 15.972 17.4328 15.9139 17.46 15.8557C17.4728 15.8247 17.4864 15.7937 17.5 15.7627C17.4698 15.833 17.5 15.7627 17.5136 15.7333C17.568 15.6154 17.624 15.4975 17.6821 15.3811C17.797 15.1499 17.9207 14.9232 18.0531 14.7011C18.1839 14.482 18.3237 14.2666 18.471 14.0573C18.544 13.9535 18.6196 13.8513 18.6977 13.7505L18.8103 13.6069C18.8564 13.5495 18.7733 13.6523 18.8201 13.5956L18.8919 13.5095C19.215 13.1244 19.5715 12.7686 19.9573 12.4463C20.0669 12.3549 20.1795 12.268 20.2928 12.1818C20.3276 12.1546 20.2928 12.1818 20.2845 12.1871L20.3276 12.1554L20.4296 12.0836C20.4976 12.0363 20.5663 11.9894 20.6359 11.9431C20.9003 11.7693 21.1734 11.6081 21.455 11.4595C21.7285 11.3144 22.0081 11.1814 22.2929 11.0582L22.4796 10.9827L22.5415 10.9577L22.5242 10.9645L22.6322 10.9222C22.7743 10.8668 22.9171 10.8139 23.0607 10.7635C23.5605 10.5891 24.069 10.4403 24.584 10.3177C24.9809 10.2225 25.3814 10.1417 25.7854 10.0752C25.9214 10.0533 26.0582 10.0321 26.1957 10.014L26.2713 10.0034H26.303C26.3748 9.99356 26.2055 10.0155 26.2464 10.0102C26.3506 9.99734 26.4549 9.98449 26.5592 9.97316C27.2617 9.89712 27.9688 9.87187 28.6749 9.89759C28.9389 9.90767 29.2023 9.9253 29.4653 9.95049C29.5703 9.96031 29.6746 9.9724 29.7789 9.98449C29.8431 9.99205 29.8 9.98449 29.7562 9.98449L29.8235 9.99356L29.9451 10.0102C30.4809 10.0905 31.0109 10.2054 31.5319 10.354C31.8417 10.4421 32.1473 10.5414 32.4485 10.6517L32.657 10.7273L32.7674 10.7703C32.7727 10.7703 32.8248 10.793 32.7817 10.7764L32.8271 10.7945C32.9548 10.8474 33.0825 10.9018 33.2087 10.9585C33.9445 11.2821 34.6458 11.6793 35.3017 12.1441L35.3614 12.1879L35.3183 12.1561L35.344 12.175C35.4408 12.2506 35.536 12.3209 35.6297 12.3964C35.8972 12.6105 36.1538 12.8372 36.3996 13.0765C36.6319 13.3002 36.8533 13.5331 37.0638 13.7754C37.1142 13.8324 37.1626 13.889 37.2089 13.9455L37.2739 14.021L37.2966 14.049L37.3185 14.0762C37.4107 14.1926 37.5013 14.3112 37.5882 14.4306C37.9103 14.8714 38.2007 15.3345 38.4572 15.8164C38.5705 16.0305 38.6776 16.2471 38.7783 16.4662L38.8101 16.5357C38.8146 16.5471 38.8199 16.5592 38.8252 16.5705C38.8463 16.6173 38.7957 16.5025 38.8161 16.5493L38.8841 16.7065C38.9249 16.804 38.965 16.9022 39.0035 17.0004C39.243 17.6173 39.4449 18.2482 39.608 18.8895C39.6632 19.1011 39.7138 19.3126 39.7591 19.5265C39.7841 19.6466 39.8075 19.7675 39.8287 19.8884C39.84 19.9496 39.8498 20.0108 39.8604 20.0728L39.8763 20.1741C39.8763 20.1892 39.88 20.2035 39.8823 20.2186C39.8846 20.2337 39.8936 20.2942 39.8823 20.2428C39.871 20.1914 39.8899 20.3018 39.8921 20.3138L39.9035 20.4053C39.9125 20.4808 39.9208 20.5519 39.9276 20.6252C39.9428 20.7717 39.9548 20.9188 39.9639 21.0664C39.9836 21.3828 39.9888 21.6999 39.9798 22.0178C39.9702 22.3623 39.9433 22.7059 39.8989 23.0484C39.8989 23.0688 39.8936 23.0885 39.8906 23.1081C39.8906 23.0991 39.8974 23.0628 39.8906 23.1081C39.8838 23.1535 39.8763 23.2018 39.8687 23.2487C39.8536 23.3439 39.8377 23.4383 39.8196 23.5328C39.7841 23.7202 39.744 23.9106 39.6979 24.0919C39.6171 24.4214 39.5241 24.7493 39.4229 25.0743C39.3095 25.4377 39.1803 25.7966 39.0322 26.1488L38.971 26.2916C38.9506 26.3377 39.002 26.222 38.9808 26.2681C38.9756 26.2795 38.971 26.2908 38.9657 26.3014C38.9544 26.3278 38.9423 26.3543 38.9302 26.3769C38.8829 26.4777 38.8338 26.5797 38.7829 26.683C38.6756 26.8961 38.5602 27.1049 38.4368 27.3094C38.3068 27.5245 38.1673 27.7348 38.0182 27.9403C37.9812 27.991 37.9426 28.0408 37.9048 28.0915C37.8844 28.1187 37.8633 28.1459 37.8421 28.1723L37.8149 28.2071C37.8096 28.2139 37.7688 28.2652 37.7998 28.2267C37.8308 28.1882 37.7998 28.2267 37.793 28.2343L37.7552 28.2804C37.7363 28.303 37.7167 28.3257 37.6978 28.3491L37.5588 28.5078C37.3711 28.7158 37.1726 28.9138 36.9641 29.101C36.8553 29.1977 36.744 29.2914 36.6301 29.3821C36.5742 29.4266 36.5175 29.4705 36.4608 29.5135C36.452 29.521 36.4427 29.5278 36.4329 29.5339L36.3233 29.6095C35.9955 29.8387 35.6495 30.0409 35.2889 30.214C35.1506 30.2805 35.0108 30.3417 34.8695 30.3999L34.8121 30.4233L34.8468 30.4097L34.8166 30.421C34.7675 30.4407 34.7184 30.4596 34.6655 30.4777C34.5612 30.517 34.4562 30.5533 34.3504 30.5895C33.8312 30.763 33.2981 30.8911 32.7568 30.9726L32.6548 30.987C32.5792 30.9983 32.7009 30.9825 32.6223 30.9915C32.5437 31.0006 32.4583 31.0104 32.376 31.018C32.2067 31.0336 32.0369 31.0442 31.8667 31.0497C31.5263 31.0613 31.1856 31.051 30.8466 31.0187L30.7075 31.0044L30.6524 30.9976C30.5579 30.9847 30.4635 30.9704 30.3698 30.9538C30.1831 30.922 29.9988 30.882 29.8159 30.8359C29.5414 30.766 29.271 30.681 29.0059 30.5812L28.9145 30.5457C28.8752 30.5306 28.8442 30.517 28.9046 30.5457L28.7263 30.4702C28.613 30.4198 28.5011 30.3674 28.3908 30.313C28.1737 30.2047 27.9624 30.0871 27.7568 29.9601C27.6561 29.8966 27.5566 29.8314 27.4584 29.7644C27.4108 29.7327 27.3647 29.6994 27.3186 29.6669C27.2936 29.6488 27.268 29.6322 27.243 29.6125C27.3027 29.6609 27.2612 29.6261 27.2287 29.6012C27.0428 29.4606 26.8632 29.3123 26.6899 29.1561C26.3498 28.8503 26.033 28.5194 25.7424 28.1663L25.694 28.1081L25.7167 28.136C25.7051 28.1238 25.6945 28.1106 25.6849 28.0967C25.6487 28.0514 25.6131 28.0053 25.5776 27.9592C25.5089 27.8708 25.4424 27.7809 25.3766 27.6902C25.2467 27.5104 25.1225 27.3273 25.0041 27.1409C24.7744 26.7797 24.5638 26.4087 24.3724 26.0279C24.2787 25.842 24.1888 25.6553 24.1034 25.4664C24.0928 25.4422 24.0823 25.4181 24.0709 25.3909C24.0399 25.3221 24.0838 25.4203 24.0709 25.3984C24.0498 25.3501 24.0286 25.3025 24.0082 25.2549C23.9697 25.1634 23.9326 25.072 23.8941 24.9798C23.7536 24.6332 23.6251 24.2821 23.5087 23.9265C23.3222 23.3592 23.1643 22.783 23.0357 22.1999C22.9934 22.0102 22.9549 21.8221 22.9194 21.6279C22.9073 21.5636 22.8959 21.4994 22.8846 21.4359C22.8717 21.3604 22.8589 21.2848 22.8468 21.2093C22.8377 21.1533 22.8294 21.0974 22.8211 21.0415C22.8173 21.0151 22.8121 20.9886 22.8098 20.9622C22.8181 21.0506 22.8098 20.9675 22.8053 20.9297C22.6676 19.9031 22.6262 18.8659 22.6813 17.8316C22.6949 17.5664 22.7168 17.3027 22.7456 17.0375C22.7531 16.9747 22.7599 16.912 22.7682 16.8486C22.772 16.8153 22.7765 16.7813 22.7811 16.7481C22.7811 16.7337 22.7856 16.7193 22.7871 16.705C22.7871 16.7322 22.778 16.7654 22.7871 16.7186C22.806 16.5909 22.8257 16.4632 22.8491 16.3362C22.9333 15.8504 23.0597 15.3728 23.2269 14.9089C23.2669 14.8001 23.3108 14.6935 23.3561 14.587C23.3841 14.5205 23.3266 14.6489 23.3561 14.587C23.3689 14.5605 23.381 14.5333 23.3931 14.5069C23.4181 14.4548 23.4438 14.4034 23.4687 14.352C23.5664 14.1613 23.6783 13.9781 23.8034 13.8042C23.8329 13.7634 23.8631 13.7241 23.8933 13.6848C23.9357 13.6304 23.8442 13.7422 23.8896 13.6901C23.9092 13.6674 23.9281 13.644 23.9478 13.6221C24.0138 13.5468 24.0837 13.4749 24.1571 13.4067C24.1918 13.3742 24.2273 13.3425 24.2644 13.3123C24.2817 13.2971 24.3822 13.2367 24.3837 13.217C24.3837 13.2374 24.3082 13.2677 24.3739 13.2254L24.4366 13.183C24.479 13.1553 24.522 13.1301 24.5658 13.1075C24.6537 13.0586 24.744 13.0142 24.8364 12.9745C24.7736 13.0024 24.8213 12.9805 24.8553 12.9684L24.9573 12.9337C25.0275 12.9118 25.0986 12.8921 25.1711 12.8747C25.2436 12.8574 25.3079 12.8453 25.3774 12.8339C25.4099 12.8287 25.4734 12.8203 25.4023 12.8287C25.4461 12.8234 25.49 12.8188 25.5346 12.8158C25.6796 12.8038 25.8253 12.8021 25.9706 12.8105C26.0098 12.8105 26.0491 12.8135 26.0884 12.8196L26.1391 12.8249C26.1338 12.8249 26.0718 12.8151 26.1179 12.8249C26.2018 12.8385 26.2849 12.8521 26.3673 12.8717C26.433 12.8868 26.498 12.905 26.5622 12.9254C26.6 12.9375 26.637 12.9503 26.6733 12.9639L26.7209 12.9813C26.6861 12.9677 26.6854 12.9669 26.7209 12.9813C26.7866 13.0115 26.8524 13.0432 26.9151 13.0788C26.9491 13.0984 26.9831 13.1181 27.0156 13.1392L27.0579 13.1672C27.0639 13.1672 27.1206 13.2118 27.0866 13.1861C27.0526 13.1604 27.1327 13.2238 27.1448 13.2337C27.1569 13.2435 27.1894 13.2714 27.2105 13.2911C27.2603 13.3365 27.3077 13.3844 27.3526 13.4347C27.3654 13.4483 27.4281 13.52 27.3972 13.4845C27.3662 13.449 27.4198 13.5148 27.4281 13.5261C27.4682 13.5797 27.5037 13.6357 27.5407 13.6931C27.5778 13.7505 27.6042 13.8011 27.6329 13.8563C27.6488 13.8865 27.6609 13.9183 27.6775 13.9477C27.6941 13.9772 27.6684 13.9266 27.6677 13.9235C27.6745 13.9409 27.6828 13.9591 27.6896 13.9764C27.7386 14.0965 27.7787 14.22 27.8097 14.3459C27.8238 14.4064 27.8367 14.4668 27.8483 14.5273C27.8483 14.5416 27.8521 14.556 27.8551 14.5696C27.8664 14.6233 27.8475 14.4993 27.8551 14.5537C27.8551 14.5862 27.8634 14.6195 27.8664 14.652C27.8777 14.7763 27.88 14.9013 27.8732 15.026C27.8767 15.0849 27.8713 15.144 27.8573 15.2013C27.8573 15.2013 27.8709 15.1257 27.8619 15.1673C27.8581 15.1847 27.8558 15.2021 27.8528 15.2194C27.8468 15.2497 27.8407 15.2791 27.8339 15.3094C27.8211 15.3638 27.8067 15.4182 27.7893 15.4711C27.7803 15.4998 27.7704 15.5277 27.7599 15.5549L27.7463 15.5904C27.7402 15.6071 27.7123 15.6433 27.7417 15.6033C27.7712 15.5632 27.7259 15.6328 27.7183 15.6471C27.7107 15.6615 27.6956 15.6902 27.6828 15.7113C27.6548 15.7605 27.6223 15.8058 27.5898 15.8519C27.5574 15.898 27.639 15.8005 27.5898 15.8519C27.5657 15.8761 27.5438 15.9018 27.5188 15.9275C27.4939 15.9531 27.4697 15.9713 27.4433 15.994C27.4365 16 27.4002 16.0325 27.4387 15.9985C27.4773 15.9645 27.4312 16.0038 27.4213 16.0098C27.3714 16.0428 27.3197 16.0731 27.2664 16.1005L27.1909 16.1353C27.1244 16.1662 27.203 16.1353 27.2083 16.1285C27.1919 16.1375 27.1743 16.1441 27.1561 16.1481C26.9117 16.2247 26.6604 16.2774 26.4058 16.3053C25.8769 16.3808 25.32 16.4564 24.9293 16.8342C24.6135 17.1417 24.5031 17.5384 24.5379 17.9593C24.5908 18.6152 24.7646 19.2696 24.9202 19.9088C25.1864 21.0198 25.5125 22.1156 25.8973 23.1912C26.0484 23.622 26.2154 24.0496 26.3831 24.4758C26.5698 24.9488 26.7572 25.4271 26.9876 25.8813C27.0964 26.0943 27.2249 26.3256 27.4168 26.482C27.5359 26.5785 27.6732 26.6501 27.8206 26.6923C27.9679 26.7344 28.1223 26.7465 28.2744 26.7276C28.7981 26.6724 29.2311 26.383 29.6731 26.1329C29.7796 26.0732 29.8877 26.0143 29.998 25.9621L30.0842 25.9228C30.0962 25.9175 30.1091 25.913 30.1212 25.907C30.162 25.8881 30.0887 25.9206 30.0894 25.9198C30.1443 25.89 30.2038 25.8698 30.2655 25.8601C30.3199 25.8442 30.3758 25.8306 30.4317 25.8201L30.4703 25.8133C30.5458 25.7997 30.4446 25.8193 30.4438 25.8133L30.536 25.8072C30.5526 25.8072 30.7038 25.7966 30.7106 25.8125C30.7106 25.8125 30.6282 25.7974 30.6735 25.8072L30.7279 25.817C30.7612 25.8231 30.7929 25.8306 30.8254 25.8397C30.8579 25.8488 30.901 25.8624 30.9335 25.8745L30.9229 25.8707L30.9705 25.8934C31.006 25.9115 31.04 25.9304 31.074 25.9515C31.0876 25.9606 31.1012 25.9704 31.1156 25.9787C31.1647 26.0075 31.0733 25.9425 31.1156 25.9787C31.2338 26.0789 31.3468 26.185 31.4541 26.2969C31.5004 26.3447 31.545 26.3951 31.5878 26.448L31.6181 26.4842C31.609 26.4729 31.572 26.4246 31.6181 26.4842C31.6407 26.5137 31.6634 26.5432 31.6846 26.5734C31.7701 26.6922 31.8478 26.8164 31.9173 26.9452C31.9513 27.0079 31.9815 27.0721 32.0125 27.1364C32.0314 27.1756 32.008 27.1258 32.0057 27.1212L32.0306 27.1809C32.0452 27.2167 32.0588 27.2522 32.0714 27.2875C32.1205 27.4222 32.1584 27.5607 32.1848 27.7016C32.1916 27.734 32.1984 27.7915 32.1901 27.7235C32.1946 27.759 32.1984 27.7937 32.2014 27.8293C32.2067 27.8989 32.2082 27.9688 32.2059 28.0386C32.2059 28.068 32.2022 28.0967 32.1999 28.1262C32.1999 28.1391 32.1923 28.2018 32.1999 28.1481C32.2075 28.0945 32.1999 28.1481 32.1999 28.1549C32.188 28.2202 32.1716 28.2846 32.1508 28.3476C32.1417 28.3741 32.1311 28.3997 32.1213 28.4232C32.1531 28.3363 32.1175 28.4232 32.1062 28.4481C32.0759 28.5026 32.0412 28.5547 32.0027 28.6038C32.0435 28.5516 32.008 28.5947 31.9853 28.6181C31.9626 28.6415 31.9354 28.665 31.9097 28.6884C31.8992 28.6982 31.8863 28.7065 31.8757 28.7164C31.8757 28.7164 31.9332 28.6801 31.8961 28.7012C31.8591 28.7224 31.8387 28.7405 31.8092 28.7579C31.7521 28.7918 31.6931 28.8223 31.6324 28.8493L31.5894 28.8682C31.5894 28.8682 31.6521 28.8448 31.609 28.8599C31.5659 28.875 31.5372 28.8871 31.5009 28.8992C31.3559 28.9491 31.2078 28.9906 31.0589 29.0307C30.8889 29.0768 30.7189 29.1191 30.5451 29.1493C30.4975 29.1576 30.4506 29.1644 30.403 29.1712C30.4627 29.1629 30.3675 29.175 30.3501 29.1765C30.2693 29.1856 30.1877 29.1916 30.1061 29.1954C29.8397 29.2079 29.5728 29.198 29.3081 29.1659C29.1026 29.1418 28.9054 29.3564 28.9137 29.5438C28.9243 29.7704 29.0882 29.8936 29.3081 29.9216L29.3021 29.9186Z" fill="#12141D"/>
</svg>
