<svg width="5319" height="1833" viewBox="0 0 5319 1833" fill="none" xmlns="http://www.w3.org/2000/svg">
<g clip-path="url(#clip0_102_12)">
<g opacity="0.2" filter="url(#filter0_f_102_12)">
<path d="M368.273 1445.23C353.211 1443.92 342.424 1424.41 345.517 1403.69L401.285 1028.44L250.662 1015.39C212.791 1012.11 238.475 969.375 239.417 967.659C299.633 839.189 389.838 649.171 509.249 395.74C512.456 389.096 517.225 384.203 522.742 381.896C528.26 379.589 534.183 380.011 539.502 383.09C544.82 386.169 549.203 391.714 551.902 398.779C554.602 405.843 555.45 413.989 554.303 421.825L498.534 797.072L649.588 810.16C666.802 811.652 675.759 823.818 665.029 851.065C508.018 1181.57 416.819 1374.5 390.57 1429.78C385.783 1440.15 377.311 1446.01 368.273 1445.23Z" fill="#F77737"/>
</g>
<g opacity="0.3" filter="url(#filter1_f_102_12)">
<path d="M368.273 1445.23C353.211 1443.92 342.424 1424.41 345.517 1403.69L401.285 1028.44L250.662 1015.39C212.791 1012.11 238.475 969.375 239.417 967.659C299.633 839.189 389.838 649.171 509.249 395.74C512.456 389.096 517.225 384.203 522.742 381.896C528.26 379.589 534.183 380.011 539.502 383.09C544.82 386.169 549.203 391.714 551.902 398.779C554.602 405.843 555.45 413.989 554.303 421.825L498.534 797.072L649.588 810.16C666.802 811.652 675.759 823.818 665.029 851.065C508.018 1181.57 416.819 1374.5 390.57 1429.78C385.783 1440.15 377.311 1446.01 368.273 1445.23Z" fill="#F77737"/>
</g>
<path d="M368.273 1445.23C353.211 1443.92 342.424 1424.41 345.517 1403.69L401.285 1028.44L250.662 1015.39C212.791 1012.11 238.475 969.375 239.417 967.659C299.633 839.189 389.838 649.171 509.249 395.74C512.456 389.096 517.225 384.203 522.742 381.896C528.26 379.589 534.183 380.011 539.502 383.09C544.82 386.169 549.203 391.714 551.902 398.779C554.602 405.843 555.45 413.989 554.303 421.825L498.534 797.072L649.588 810.16C666.802 811.652 675.759 823.818 665.029 851.065C508.018 1181.57 416.819 1374.5 390.57 1429.78C385.783 1440.15 377.311 1446.01 368.273 1445.23Z" fill="#F77737"/>
<path d="M1086.91 900.198V984.71H1205.11C1192.7 1024.31 1157.83 1048.54 1089.27 1048.54C1018.94 1048.54 963.983 1012.49 963.983 930.339C963.983 848.191 1018.94 811.549 1089.27 811.549C1146.01 811.549 1180.88 827.506 1198.02 858.829H1296.71C1280.75 779.636 1196.83 719.945 1089.27 719.945C970.483 719.945 874.743 794.41 874.743 930.339C874.743 1068.63 970.483 1140.14 1089.27 1140.14C1150.15 1140.14 1189.74 1110 1204.52 1072.77H1209.24V1137.19H1299.08V900.198H1086.91ZM1511.5 808.594C1454.17 808.594 1434.08 825.733 1415.17 857.647H1409.85V808.594H1320.02V1140.14H1409.85V991.802C1409.85 946.887 1429.35 894.879 1496.13 894.879C1524.5 894.879 1547.55 899.607 1555.82 901.971L1570.01 817.459C1554.64 813.913 1535.14 808.594 1511.5 808.594ZM1832.35 857.647C1809.89 828.097 1772.66 808.594 1711.2 808.594C1571.13 808.594 1556.36 926.202 1556.36 974.663C1556.36 1018.99 1571.72 1140.14 1710.6 1140.14C1773.25 1140.14 1811.07 1123 1833.53 1094.04H1836.49V1140.14H1926.32V808.594H1836.49V857.647H1832.35ZM1737.2 1063.31C1651.51 1063.31 1642.05 998.303 1642.05 974.663C1642.05 948.66 1650.91 886.014 1737.2 886.014C1814.62 886.014 1830.58 929.748 1830.58 974.663C1830.58 1024.9 1814.62 1063.31 1737.2 1063.31ZM2401.21 808.594C2318.47 808.594 2291.87 828.097 2270.01 857.647H2265.87C2246.96 829.87 2213.27 808.594 2153.58 808.594C2094.48 808.594 2064.93 828.097 2043.66 857.647H2039.52V811.549H1950.28V1140.14H2039.52V980.573C2039.52 935.658 2044.84 886.014 2122.26 886.014C2203.82 886.014 2202.63 948.66 2202.63 974.663V1140.14H2291.87V978.8L2292.46 980.573C2292.46 935.658 2297.78 886.014 2375.2 886.014C2456.76 886.014 2455.58 948.66 2455.58 974.663V1140.14H2545.41V974.663C2544.82 926.202 2541.27 808.594 2401.21 808.594ZM2777.4 900.198V984.71H2895.6C2883.19 1024.31 2848.32 1048.54 2779.77 1048.54C2709.44 1048.54 2654.47 1012.49 2654.47 930.339C2654.47 848.191 2709.44 811.549 2779.77 811.549C2836.5 811.549 2871.37 827.506 2888.51 858.829H2987.2C2971.25 779.636 2887.33 719.945 2779.77 719.945C2660.98 719.945 2565.23 794.41 2565.23 930.339C2565.23 1068.63 2660.98 1140.14 2779.77 1140.14C2840.64 1140.14 2880.23 1110 2895.01 1072.77H2899.74V1137.19H2989.57V900.198H2777.4ZM3201.99 808.594C3144.67 808.594 3124.57 825.733 3105.66 857.647H3100.34V808.594H3010.51V1140.14H3100.34V991.802C3100.34 946.887 3119.84 894.879 3186.63 894.879C3214.99 894.879 3238.04 899.607 3246.32 901.971L3260.5 817.459C3245.13 813.913 3225.63 808.594 3201.99 808.594ZM3423.75 802.684C3323.28 802.684 3239.36 857.647 3239.36 971.708C3239.36 1086.36 3323.28 1140.14 3423.75 1140.14C3524.81 1140.14 3608.73 1088.13 3608.73 971.708C3608.73 856.465 3524.81 802.684 3423.75 802.684ZM3423.75 1058.58C3367.6 1058.58 3327.42 1033.76 3327.42 971.708C3327.42 909.063 3367.6 884.832 3423.75 884.832C3480.48 884.832 3520.67 910.245 3520.67 971.708C3520.67 1031.4 3480.48 1058.58 3423.75 1058.58ZM4064.15 808.594L3987.32 1052.67L3911.68 808.594H3824.21L3749.15 1052.67L3672.33 808.594H3581.9L3685.92 1140.14H3807.66L3867.94 943.932L3928.82 1140.14H4050.56L4154.58 808.594H4064.15ZM4290.04 885.423H4397.6V809.776H4290.04V714.035H4199.62V809.776H4155.88V885.423H4199.62V1018.4C4199.62 1066.27 4199.62 1140.14 4290.04 1140.14C4379.87 1140.14 4397.6 1134.23 4397.6 1134.23V1046.76C4311.31 1051.49 4290.04 1057.99 4290.04 1010.12V1003.03V885.423ZM4622.25 808.594C4563.15 808.594 4527.1 828.097 4505.82 857.647H4501.69V713.444H4411.86V1140.14H4501.69V980.573C4501.69 935.658 4518.83 886.014 4596.25 886.014C4682.53 886.014 4682.53 948.66 4682.53 974.663V1140.14H4771.77V974.663C4771.77 926.202 4762.91 808.594 4622.25 808.594Z" fill="black"/>
</g>
<defs>
<filter id="filter0_f_102_12" x="-552.914" y="-402.522" width="2005.54" height="2630.77" filterUnits="userSpaceOnUse" color-interpolation-filters="sRGB">
<feFlood flood-opacity="0" result="BackgroundImageFix"/>
<feBlend mode="normal" in="SourceGraphic" in2="BackgroundImageFix" result="shape"/>
<feGaussianBlur stdDeviation="391.475" result="effect1_foregroundBlur_102_12"/>
</filter>
<filter id="filter1_f_102_12" x="30.1339" y="180.525" width="839.447" height="1464.68" filterUnits="userSpaceOnUse" color-interpolation-filters="sRGB">
<feFlood flood-opacity="0" result="BackgroundImageFix"/>
<feBlend mode="normal" in="SourceGraphic" in2="BackgroundImageFix" result="shape"/>
<feGaussianBlur stdDeviation="99.951" result="effect1_foregroundBlur_102_12"/>
</filter>
<clipPath id="clip0_102_12">
<rect width="5318.93" height="1833" fill="white"/>
</clipPath>
</defs>
</svg>
