<svg width="31" height="30" viewBox="0 0 31 30" fill="none" xmlns="http://www.w3.org/2000/svg">
<rect width="31" height="30" rx="5" fill="#FFE55B" fill-opacity="0.2"/>
<g clip-path="url(#clip0_152_2560)">
<path d="M10.7499 24.5H20.2499C21.0898 24.5 21.8952 24.1664 22.4891 23.5725C23.083 22.9786 23.4166 22.1732 23.4166 21.3333V15C23.4166 14.1601 23.083 13.3547 22.4891 12.7608C21.8952 12.167 21.0898 11.8333 20.2499 11.8333V10.25C20.2499 8.99022 19.7495 7.78204 18.8587 6.89124C17.9679 6.00044 16.7597 5.5 15.4999 5.5C14.2401 5.5 13.032 6.00044 12.1412 6.89124C11.2504 7.78204 10.7499 8.99022 10.7499 10.25V11.8333C9.91007 11.8333 9.10461 12.167 8.51075 12.7608C7.91688 13.3547 7.58325 14.1601 7.58325 15V21.3333C7.58325 22.1732 7.91688 22.9786 8.51075 23.5725C9.10461 24.1664 9.91007 24.5 10.7499 24.5ZM12.3333 10.25C12.3333 9.41015 12.6669 8.60469 13.2607 8.01083C13.8546 7.41696 14.6601 7.08333 15.4999 7.08333C16.3398 7.08333 17.1452 7.41696 17.7391 8.01083C18.333 8.60469 18.6666 9.41015 18.6666 10.25V11.8333H12.3333V10.25ZM9.16659 15C9.16659 14.5801 9.3334 14.1773 9.63033 13.8804C9.92727 13.5835 10.33 13.4167 10.7499 13.4167H20.2499C20.6698 13.4167 21.0726 13.5835 21.3695 13.8804C21.6664 14.1773 21.8333 14.5801 21.8333 15V21.3333C21.8333 21.7533 21.6664 22.156 21.3695 22.4529C21.0726 22.7499 20.6698 22.9167 20.2499 22.9167H10.7499C10.33 22.9167 9.92727 22.7499 9.63033 22.4529C9.3334 22.156 9.16659 21.7533 9.16659 21.3333V15Z" fill="#FFE55B"/>
<path d="M14.7083 19.6044V20.5417C14.7083 20.7517 14.7917 20.9531 14.9402 21.1015C15.0887 21.25 15.29 21.3334 15.5 21.3334C15.71 21.3334 15.9113 21.25 16.0598 21.1015C16.2083 20.9531 16.2917 20.7517 16.2917 20.5417V19.6044C16.8199 19.4177 17.2651 19.0502 17.5485 18.5669C17.832 18.0837 17.9355 17.5158 17.8408 16.9636C17.7461 16.4114 17.4592 15.9105 17.0308 15.5494C16.6025 15.1883 16.0603 14.9902 15.5 14.9902C14.9398 14.9902 14.3975 15.1883 13.9692 15.5494C13.5408 15.9105 13.2539 16.4114 13.1592 16.9636C13.0645 17.5158 13.168 18.0837 13.4515 18.5669C13.7349 19.0502 14.1801 19.4177 14.7083 19.6044ZM15.5 16.5834C15.6566 16.5834 15.8096 16.6298 15.9398 16.7168C16.07 16.8038 16.1715 16.9275 16.2314 17.0721C16.2913 17.2168 16.307 17.376 16.2765 17.5295C16.2459 17.6831 16.1705 17.8241 16.0598 17.9349C15.9491 18.0456 15.808 18.121 15.6545 18.1515C15.5009 18.1821 15.3417 18.1664 15.197 18.1065C15.0524 18.0466 14.9287 17.9451 14.8418 17.8149C14.7548 17.6847 14.7083 17.5316 14.7083 17.3751C14.7083 17.1651 14.7917 16.9637 14.9402 16.8153C15.0887 16.6668 15.29 16.5834 15.5 16.5834Z" fill="#FFE55B"/>
</g>
<defs>
<clipPath id="clip0_152_2560">
<rect width="19" height="19" fill="white" transform="translate(6 5.5)"/>
</clipPath>
</defs>
</svg>
