<svg width="159" height="161" viewBox="0 0 159 161" fill="none" xmlns="http://www.w3.org/2000/svg">
<path d="M132.183 28.7513L141.361 35.1586C144.215 37.1513 143.593 41.5427 140.298 42.6642L129.908 46.2C126.502 47.3591 123.287 44.0241 124.57 40.6628L125.662 37.8038C125.91 37.1545 125.994 36.4542 125.909 35.7645L125.535 32.7591C125.081 29.1082 129.166 26.6454 132.183 28.7513Z" fill="#FFBB24"/>
<path opacity="0.2" d="M122.981 36.482C59.9098 31.1921 13.9084 76.723 51.7657 107.697C65.1937 118.684 81.8771 117.463 92.0498 107.29C103.443 95.8967 105.071 77.1788 93.6775 65.7853C68.449 40.5569 7.00557 67.0061 51.3588 159.375" stroke="#F15060" stroke-width="2.12426" stroke-linecap="round" stroke-dasharray="5.52 5.52"/>
</svg>
