<svg width="159" height="160" viewBox="0 0 159 160" fill="none" xmlns="http://www.w3.org/2000/svg">
<path d="M132.183 27.8932L141.361 34.3006C144.215 36.2932 143.593 40.6847 140.298 41.8062L129.908 45.3419C126.502 46.5011 123.287 43.1661 124.57 39.8047L125.662 36.9458C125.91 36.2964 125.994 35.5962 125.909 34.9064L125.535 31.901C125.081 28.2502 129.166 25.7873 132.183 27.8932Z" fill="#EF5F3C"/>
<path opacity="0.2" d="M122.981 35.6239C59.9098 30.3341 13.9084 75.8649 51.7657 106.839C65.1937 117.826 81.8771 116.605 92.0498 106.432C103.443 95.0387 105.071 76.3208 93.6775 64.9273C68.449 39.6989 7.00557 66.148 51.3588 158.517" stroke="#F15060" stroke-width="2.12426" stroke-linecap="round" stroke-dasharray="5.52 5.52"/>
</svg>
