<svg width="109" height="163" viewBox="0 0 109 163" fill="none" xmlns="http://www.w3.org/2000/svg">
<path d="M72.8733 151.613L62.9576 156.293C59.8739 157.749 56.4445 155.081 57.0963 151.734L59.1511 141.182C59.8248 137.722 64.225 136.614 66.457 139.342L68.3553 141.662C68.7865 142.189 69.3404 142.602 69.9684 142.865L72.7047 144.011C76.0287 145.403 76.1323 150.075 72.8733 151.613Z" fill="#FFBB24"/>
<path opacity="0.2" d="M70.7848 140.027C105.998 88.9978 89.7034 27.7257 44.9405 44.8165C29.063 50.8786 21.9754 65.6527 25.6672 79.2531C29.8019 94.4855 44.918 104.985 60.1504 100.85C93.8794 91.6947 101.324 26.5911 1.21662 19.3026" stroke="#F15060" stroke-width="2.08086" stroke-linecap="round" stroke-dasharray="5.41 5.41"/>
</svg>
